<svg width="760" height="800" viewBox="0 0 760 800" fill="none" xmlns="http://www.w3.org/2000/svg">
<path d="M129.458 349.322C119.482 349.322 115.562 357.04 114.927 365.479C112.994 391.181 144.948 402.764 168.139 396.206C176.81 393.753 183.789 389.284 185.125 380.749C186.842 369.779 178.278 360.531 169.776 353.712C156.552 343.106 138.294 336.493 122.09 345.119" stroke="white" stroke-width="12" stroke-linecap="round"/>
<path d="M151.561 401.436C151.561 426.735 156.35 452.084 157.036 477.411C157.45 492.736 156.166 507.992 156.166 523.314" stroke="white" stroke-width="12" stroke-linecap="round"/>
<path d="M123.932 436.738C123.932 431.578 128.287 428.029 131.504 423.944C136.341 417.801 141.766 412.037 146.905 406.105C147.607 405.295 153.26 397.064 154.784 397.373C157.027 397.828 159.253 406.734 160.054 408.347C164.562 417.416 169.577 426.62 176.376 434.45C182.177 441.131 191.626 447.67 195.768 455.23" stroke="white" stroke-width="12" stroke-linecap="round"/>
<path d="M151.527 528.716C151.527 535.812 145.897 544.107 143.01 550.481C134.674 568.888 127.275 588.19 116.41 605.492C109.776 616.057 101.002 625.244 94.0039 635.509C92.296 638.014 91.3833 639.934 91.3833 642.804" stroke="white" stroke-width="12" stroke-linecap="round"/>
<path d="M157.424 531.945C158.04 537.288 161.368 543.629 163.582 548.568C170.966 565.042 178.182 581.796 187.037 597.659C198.029 617.352 209.678 637.265 223.005 655.72C231.711 667.775 243.498 679.904 249.408 693.39" stroke="white" stroke-width="12" stroke-linecap="round"/>
<rect x="360.713" y="539.151" width="175" height="188" fill="#9F9F9F"/>
<path d="M565 638.5L472 529H793.582V648.5L565 638.5Z" fill="#D9D9D9" stroke="black"/>
<path d="M319.713 531.311V636.311C319.713 636.311 349.213 638.311 351.713 636.311C354.213 634.311 402.213 524.811 400.713 523.311C399.213 521.811 319.713 531.311 319.713 531.311Z" fill="#D9D9D9"/>
<mask id="path-9-outside-1_10_57" maskUnits="userSpaceOnUse" x="374" y="597" width="142" height="157" fill="black">
<rect fill="white" x="374" y="597" width="142" height="157"/>
<path d="M380 684C380 659.733 387.333 640.2 402 625.4C416.667 610.467 435.8 603 459.4 603C466.2 603 471.6 604 475.6 606C476.8 607.333 477.6 610.533 478 615.6C488.8 618.133 496.733 623.933 501.8 633C507 642.067 509.6 653.4 509.6 667C509.6 690.6 502.533 710 488.4 725.2C474.4 740.4 458 748 439.2 748C420.4 748 405.8 742.133 395.4 730.4C385.133 718.667 380 703.2 380 684ZM419.2 687C419.2 696.6 420.933 704.467 424.4 710.6C428 716.6 433.333 719.6 440.4 719.6C447.467 719.6 453.933 714.2 459.8 703.4C465.8 692.467 468.8 680.333 468.8 667C468.8 647.8 460.8 638.2 444.8 638.2C442.267 638.2 439.133 638.533 435.4 639.2C424.6 653.2 419.2 669.133 419.2 687Z"/>
</mask>
<path d="M380 684C380 659.733 387.333 640.2 402 625.4C416.667 610.467 435.8 603 459.4 603C466.2 603 471.6 604 475.6 606C476.8 607.333 477.6 610.533 478 615.6C488.8 618.133 496.733 623.933 501.8 633C507 642.067 509.6 653.4 509.6 667C509.6 690.6 502.533 710 488.4 725.2C474.4 740.4 458 748 439.2 748C420.4 748 405.8 742.133 395.4 730.4C385.133 718.667 380 703.2 380 684ZM419.2 687C419.2 696.6 420.933 704.467 424.4 710.6C428 716.6 433.333 719.6 440.4 719.6C447.467 719.6 453.933 714.2 459.8 703.4C465.8 692.467 468.8 680.333 468.8 667C468.8 647.8 460.8 638.2 444.8 638.2C442.267 638.2 439.133 638.533 435.4 639.2C424.6 653.2 419.2 669.133 419.2 687Z" fill="#5B5B5B"/>
<path d="M402 625.4L406.262 629.624L406.271 629.614L406.281 629.604L402 625.4ZM475.6 606L480.06 601.986L479.3 601.142L478.283 600.634L475.6 606ZM478 615.6L472.019 616.072L472.363 620.441L476.63 621.442L478 615.6ZM501.8 633L496.562 635.927L496.579 635.956L496.595 635.985L501.8 633ZM488.4 725.2L484.006 721.114L483.996 721.125L483.987 721.135L488.4 725.2ZM395.4 730.4L390.885 734.351L390.897 734.366L390.91 734.38L395.4 730.4ZM424.4 710.6L419.177 713.552L419.215 713.62L419.255 713.687L424.4 710.6ZM459.8 703.4L454.54 700.514L454.534 700.525L454.528 700.536L459.8 703.4ZM435.4 639.2L434.345 633.294L432.064 633.701L430.649 635.535L435.4 639.2ZM386 684C386 661.034 392.892 643.115 406.262 629.624L397.738 621.177C381.775 637.285 374 658.433 374 684H386ZM406.281 629.604C419.671 615.971 437.185 609 459.4 609V597C434.415 597 413.662 604.963 397.719 621.196L406.281 629.604ZM459.4 609C465.71 609 470.071 609.944 472.917 611.367L478.283 600.634C473.129 598.056 466.69 597 459.4 597V609ZM471.14 610.014C470.74 609.569 470.949 609.533 471.279 610.855C471.568 612.009 471.832 613.714 472.019 616.072L483.981 615.128C483.768 612.42 483.432 609.991 482.921 607.945C482.451 606.067 481.661 603.765 480.06 601.986L471.14 610.014ZM476.63 621.442C485.914 623.619 492.379 628.441 496.562 635.927L507.038 630.073C501.088 619.426 491.686 612.648 479.37 609.759L476.63 621.442ZM496.595 635.985C501.14 643.909 503.6 654.14 503.6 667H515.6C515.6 652.66 512.86 640.224 507.005 630.015L496.595 635.985ZM503.6 667C503.6 689.308 496.964 707.178 484.006 721.114L492.794 729.286C508.102 712.822 515.6 691.892 515.6 667H503.6ZM483.987 721.135C470.997 735.238 456.146 742 439.2 742V754C459.854 754 477.803 745.562 492.813 729.265L483.987 721.135ZM439.2 742C421.744 742 408.925 736.614 399.89 726.42L390.91 734.38C402.675 747.653 419.056 754 439.2 754V742ZM399.915 726.449C390.814 716.047 386 702.097 386 684H374C374 704.303 379.453 721.287 390.885 734.351L399.915 726.449ZM413.2 687C413.2 697.275 415.049 706.25 419.177 713.552L429.623 707.648C426.817 702.683 425.2 695.925 425.2 687H413.2ZM419.255 713.687C423.953 721.516 431.252 725.6 440.4 725.6V713.6C435.415 713.6 432.047 711.684 429.545 707.513L419.255 713.687ZM440.4 725.6C450.944 725.6 458.954 717.527 465.072 706.264L454.528 700.536C448.912 710.874 443.99 713.6 440.4 713.6V725.6ZM465.06 706.287C471.579 694.408 474.8 681.271 474.8 667H462.8C462.8 679.396 460.021 690.526 454.54 700.514L465.06 706.287ZM474.8 667C474.8 656.715 472.68 647.884 467.409 641.559C461.964 635.025 454.042 632.2 444.8 632.2V644.2C451.558 644.2 455.636 646.175 458.191 649.241C460.92 652.517 462.8 658.086 462.8 667H474.8ZM444.8 632.2C441.786 632.2 438.273 632.592 434.345 633.294L436.455 645.107C439.993 644.475 442.748 644.2 444.8 644.2V632.2ZM430.649 635.535C419.03 650.597 413.2 667.822 413.2 687H425.2C425.2 670.445 430.17 655.803 440.151 642.865L430.649 635.535Z" fill="black" mask="url(#path-9-outside-1_10_57)"/>
<rect x="2" y="222" width="70" height="24" fill="#D9D9D9" stroke="black" stroke-width="4"/>
<path d="M31.1351 182.693C30.981 183.161 31.157 214.167 31.157 214.167L773.015 225.996L773 205C773 205 467.362 194.476 453.993 192.649C440.624 190.822 437.421 186.46 426.323 182.922C404.061 175.826 279.944 174.529 242.711 175.732C212.925 176.695 31.2892 182.225 31.1351 182.693Z" fill="#FFFEF1" stroke="black" stroke-width="4"/>
<path d="M29.477 270.151L768.5 270.151L781.5 212.5L29.477 203.151L29.477 270.151Z" fill="#323232" stroke="black"/>
<path d="M810 278V532H320V278.5L810 278Z" fill="#E4E4E4" stroke="#5B5B5B" stroke-width="19"/>
<path d="M576.713 268.151H520.713L466.213 209.151L516.213 209.651L576.713 268.151Z" fill="#FFFEF1" stroke="black"/>
<path d="M28.7134 269.151H44.7134L44 727H28.7134V269.151Z" fill="#203D99"/>
<path d="M352.599 630.723L319.713 636.651V727.151H369.877C369.877 727.151 369.32 660.201 369.877 648.71C370.435 637.218 396.697 581.994 404.5 573.5C410.743 566.705 471.853 572.775 477.5 576C483.147 579.225 506.1 582.859 509.221 595.25C512.343 607.64 521.67 698.505 525.385 727.151H803L777.5 636.651C756.505 638.15 578.284 632.199 576.5 631C574.27 629.501 506.672 560.997 505 557C503.328 553.003 485.516 538.499 480.5 537C475.484 535.501 402.418 526.504 393.5 532C386.366 536.397 359.659 599.08 352.599 630.723Z" fill="#203D99"/>
<path d="M84.8093 416.151C84.8093 426.651 96.314 435.651 106.175 435.651C116.036 435.651 127.541 427.151 127.541 416.151C127.541 405.151 117.132 396.651 106.175 396.651C95.2184 396.651 84.8093 405.651 84.8093 416.151Z" stroke="white" stroke-opacity="0.15" stroke-width="8" stroke-linecap="round"/>
<path d="M106.175 435.651V452.651M106.175 558.151L141.785 642.651M106.175 558.151L90.8356 642.651M106.175 558.151V452.651M106.175 452.651L68.9219 502.651M106.175 452.651L135.759 470.151L152.194 435.651" stroke="white" stroke-opacity="0.15" stroke-width="8" stroke-linecap="round"/>
<path d="M320 727H44V715H320V727Z" fill="#203D99"/>
<rect x="216.713" y="217.151" width="232" height="40" rx="11" fill="#656565"/>
<path d="M290.365 248.151V226.333H295.638V243.869H304.715V248.151H290.365ZM320.644 226.333H325.907V240.406C325.907 242.033 325.52 243.449 324.746 244.657C323.972 245.857 322.892 246.788 321.507 247.448C320.122 248.101 318.514 248.428 316.681 248.428C314.828 248.428 313.208 248.101 311.823 247.448C310.438 246.788 309.362 245.857 308.595 244.657C307.828 243.449 307.445 242.033 307.445 240.406V226.333H312.718V239.948C312.718 240.701 312.882 241.372 313.208 241.962C313.542 242.551 314.007 243.013 314.604 243.346C315.2 243.68 315.893 243.847 316.681 243.847C317.47 243.847 318.159 243.68 318.748 243.346C319.345 243.013 319.81 242.551 320.144 241.962C320.477 241.372 320.644 240.701 320.644 239.948V226.333ZM343.722 248.151H335.658V226.333H343.712C345.935 226.333 347.849 226.77 349.454 227.643C351.066 228.51 352.309 229.76 353.182 231.393C354.056 233.02 354.493 234.966 354.493 237.231C354.493 239.504 354.056 241.457 353.182 243.091C352.316 244.724 351.077 245.978 349.464 246.851C347.852 247.718 345.938 248.151 343.722 248.151ZM340.931 243.655H343.52C344.741 243.655 345.775 243.449 346.62 243.038C347.472 242.619 348.115 241.94 348.548 241.003C348.989 240.058 349.209 238.801 349.209 237.231C349.209 235.662 348.989 234.412 348.548 233.481C348.108 232.544 347.458 231.869 346.599 231.457C345.746 231.038 344.695 230.829 343.445 230.829H340.931V243.655ZM357.572 248.151V226.333H372.465V230.616H362.845V235.09H371.517V239.383H362.845V248.151H357.572Z" fill="#DFBF43"/>
<rect x="53.7134" y="277.151" width="257" height="436" fill="#E4E4E4"/>
<path d="M93.6008 417.651C93.6008 428.151 105.106 437.151 114.967 437.151C124.828 437.151 136.333 428.651 136.333 417.651C136.333 406.651 125.924 398.151 114.967 398.151C104.01 398.151 93.6008 407.151 93.6008 417.651Z" stroke="white" stroke-opacity="0.3" stroke-width="8" stroke-linecap="round"/>
<path d="M114.967 437.151V454.151M114.967 559.651L150.577 644.151M114.967 559.651L99.6271 644.151M114.967 559.651V454.151M114.967 454.151L77.7134 504.151M114.967 454.151L144.55 471.651L160.986 437.151" stroke="white" stroke-opacity="0.3" stroke-width="8" stroke-linecap="round"/>
<path d="M181.213 570.151C169.38 550.984 134.502 511.916 94.2134 496.151C71.2134 487.151 66.7134 487.151 53.7134 485.151" stroke="#DFBF43" stroke-width="20"/>
<path d="M182.713 572.151C194.547 552.984 229.425 513.916 269.713 498.151C292.713 489.151 297.213 489.151 310.213 487.151" stroke="#DFBF43" stroke-width="20"/>
<rect x="52.5" y="277.5" width="259" height="429" stroke="#5B5B5B" stroke-width="17"/>
<line x1="183.213" y1="281.151" x2="183.213" y2="715.151" stroke="#5B5B5B" stroke-width="27"/>
</svg>
