<svg width="808" height="587" viewBox="0 0 808 587" fill="none" xmlns="http://www.w3.org/2000/svg">
<path d="M96.6107 100.105C122.611 94.1047 274.111 1.10472 348.111 0.104719C422.111 -0.89528 584.811 5.10472 663.611 25.1047C762.111 50.1047 819.611 281.105 805.111 337.605C790.611 394.105 701.111 519.605 617.111 519.605C533.111 519.605 348.111 594.605 247.111 586.105C146.111 577.605 12.6107 418.605 1.11066 315.605C-10.3893 212.605 70.6107 106.105 96.6107 100.105Z" fill="white"/>
<path d="M388.207 394.191C389.065 392.474 388.207 362 388.207 362H434.132C434.132 362 433.703 392.903 434.132 394.191C434.562 395.479 446.151 404.492 445.292 405.351C444.433 406.209 377.905 406.209 377.047 405.351C376.189 404.492 387.348 395.908 388.207 394.191Z" fill="#D9D9D9" stroke="black" stroke-width="3"/>
<rect x="225" y="146" width="372" height="211.474" rx="15" fill="#FEFFF5" stroke="black" stroke-width="10"/>
<path d="M270.835 177.909V207H266.432V182.312H266.261L259.301 186.858V182.653L266.56 177.909H270.835ZM289.741 177.909V207H285.338V182.312H285.168L278.207 186.858V182.653L285.466 177.909H289.741ZM307.739 207.483C305.494 207.473 303.577 206.882 301.986 205.707C300.395 204.533 299.178 202.824 298.335 200.58C297.492 198.335 297.071 195.632 297.071 192.469C297.071 189.315 297.492 186.621 298.335 184.386C299.188 182.152 300.409 180.447 302 179.273C303.6 178.098 305.513 177.511 307.739 177.511C309.964 177.511 311.872 178.103 313.463 179.287C315.054 180.461 316.271 182.166 317.114 184.401C317.966 186.626 318.392 189.315 318.392 192.469C318.392 195.641 317.971 198.349 317.128 200.594C316.285 202.829 315.068 204.538 313.477 205.722C311.886 206.896 309.973 207.483 307.739 207.483ZM307.739 203.69C309.708 203.69 311.247 202.729 312.355 200.807C313.473 198.884 314.031 196.105 314.031 192.469C314.031 190.054 313.776 188.013 313.264 186.347C312.762 184.67 312.038 183.402 311.091 182.54C310.153 181.669 309.036 181.233 307.739 181.233C305.778 181.233 304.24 182.199 303.122 184.131C302.005 186.062 301.441 188.842 301.432 192.469C301.432 194.893 301.683 196.943 302.185 198.619C302.696 200.286 303.42 201.55 304.358 202.412C305.295 203.264 306.422 203.69 307.739 203.69ZM334.468 177.909V207H330.065V182.312H329.894L322.934 186.858V182.653L330.192 177.909H334.468ZM352.465 207.483C350.221 207.473 348.303 206.882 346.712 205.707C345.121 204.533 343.905 202.824 343.062 200.58C342.219 198.335 341.798 195.632 341.798 192.469C341.798 189.315 342.219 186.621 343.062 184.386C343.914 182.152 345.136 180.447 346.727 179.273C348.327 178.098 350.24 177.511 352.465 177.511C354.691 177.511 356.599 178.103 358.19 179.287C359.781 180.461 360.997 182.166 361.84 184.401C362.692 186.626 363.119 189.315 363.119 192.469C363.119 195.641 362.697 198.349 361.854 200.594C361.012 202.829 359.795 204.538 358.204 205.722C356.613 206.896 354.7 207.483 352.465 207.483ZM352.465 203.69C354.435 203.69 355.974 202.729 357.082 200.807C358.199 198.884 358.758 196.105 358.758 192.469C358.758 190.054 358.502 188.013 357.991 186.347C357.489 184.67 356.764 183.402 355.817 182.54C354.88 181.669 353.763 181.233 352.465 181.233C350.505 181.233 348.966 182.199 347.849 184.131C346.731 186.062 346.168 188.842 346.158 192.469C346.158 194.893 346.409 196.943 346.911 198.619C347.423 200.286 348.147 201.55 349.085 202.412C350.022 203.264 351.149 203.69 352.465 203.69ZM378.286 207.483C376.041 207.473 374.124 206.882 372.533 205.707C370.942 204.533 369.725 202.824 368.882 200.58C368.039 198.335 367.618 195.632 367.618 192.469C367.618 189.315 368.039 186.621 368.882 184.386C369.734 182.152 370.956 180.447 372.547 179.273C374.147 178.098 376.06 177.511 378.286 177.511C380.511 177.511 382.419 178.103 384.01 179.287C385.601 180.461 386.818 182.166 387.661 184.401C388.513 186.626 388.939 189.315 388.939 192.469C388.939 195.641 388.518 198.349 387.675 200.594C386.832 202.829 385.615 204.538 384.024 205.722C382.433 206.896 380.52 207.483 378.286 207.483ZM378.286 203.69C380.255 203.69 381.794 202.729 382.902 200.807C384.019 198.884 384.578 196.105 384.578 192.469C384.578 190.054 384.322 188.013 383.811 186.347C383.309 184.67 382.585 183.402 381.638 182.54C380.7 181.669 379.583 181.233 378.286 181.233C376.325 181.233 374.786 182.199 373.669 184.131C372.552 186.062 371.988 188.842 371.979 192.469C371.979 194.893 372.23 196.943 372.732 198.619C373.243 200.286 373.967 201.55 374.905 202.412C375.842 203.264 376.969 203.69 378.286 203.69ZM405.015 177.909V207H400.612V182.312H400.441L393.481 186.858V182.653L400.739 177.909H405.015Z" fill="#203D99"/>
<path d="M608.994 287.409C609.592 291.96 599.887 310.594 594.96 319.343L629.953 339.051L646.987 308.807C656.398 300.279 685.703 320.735 717.096 264.995C733.425 236.001 718.175 204.036 689.93 188.129C661.686 172.221 632.013 167.033 610.116 204.744C588.219 242.456 608.247 281.721 608.994 287.409Z" fill="#FFCB00" stroke="black" stroke-width="6"/>
<g filter="url(#filter0_f_47_116)">
<path d="M698.466 263.571C686.804 284.277 660.563 291.61 639.857 279.948C619.15 268.285 611.818 242.045 623.48 221.339C635.142 200.632 661.382 193.3 682.089 204.962C702.795 216.624 710.128 242.864 698.466 263.571Z" fill="white"/>
</g>
<path d="M606.656 324.284L625.66 290.54C627.507 286.093 630.635 274.575 628.378 264.086C626.12 253.596 630.48 237.943 632.942 231.428" stroke="#565656" stroke-width="2"/>
<path d="M621.012 332.699L640.017 298.955C642.863 295.071 651.09 286.425 661.231 282.918C671.371 279.41 682.496 267.568 686.791 262.085" stroke="#565656" stroke-width="2"/>
<g filter="url(#filter1_d_47_116)">
<path d="M646.417 232.348C647.159 238.251 642.725 243.564 639.984 242.308C636.844 240.869 635.534 236.18 637.019 234.712C637.744 233.996 641.927 232.564 646.417 232.348C650.772 232.139 655.414 233.073 657.471 236.914C660.783 236.558 664.26 236.741 665.864 238.446C666.654 239.286 667.479 240.296 668.245 241.375C672.596 241.598 680.884 243.917 683.044 248.077C683.314 248.597 683.489 249.146 683.548 249.723C684.154 255.661 683.088 261.646 677.698 258.939C672.309 256.233 671.231 254.639 672.421 251.358C673.41 248.627 679.162 246.754 683.044 248.077C680.884 243.917 672.596 241.598 668.245 241.375C670.674 244.796 672.501 248.9 670.671 250.372C668.263 252.309 661.857 251.993 661.561 250.18C661.265 248.367 662.862 242.023 666.488 241.431C666.943 241.357 667.542 241.339 668.245 241.375C667.479 240.296 666.654 239.286 665.864 238.446C664.26 236.741 660.783 236.558 657.471 236.914C657.641 237.231 657.793 237.568 657.926 237.927C661.328 247.086 655.326 248.973 652.577 247.425C649.827 245.876 648.471 239.515 649.925 238.688C650.671 238.263 653.98 237.289 657.471 236.914C655.414 233.073 650.772 232.139 646.417 232.348Z" fill="#FF9D29"/>
<path d="M633.583 231.46C636.72 228.617 643.544 224.296 645.742 229.747C648.488 236.562 643.124 243.747 639.984 242.308C636.844 240.869 635.534 236.18 637.019 234.712C638.505 233.244 654.524 228.767 657.926 237.927C661.328 247.086 655.326 248.973 652.577 247.425C649.827 245.876 648.471 239.515 649.925 238.688C651.378 237.861 662.569 234.944 665.864 238.446C669.16 241.949 673.078 248.436 670.671 250.372C668.263 252.309 661.857 251.993 661.561 250.18C661.265 248.367 662.862 242.023 666.488 241.431C670.113 240.84 682.941 243.784 683.548 249.723C684.154 255.661 683.088 261.646 677.698 258.939C672.309 256.233 671.231 254.639 672.421 251.358C673.61 248.077 681.674 246.034 685.11 249.286C687.859 251.888 687.189 259.236 686.51 262.585" stroke="#FF6B00" stroke-width="3" stroke-linecap="round"/>
</g>
<path d="M630.37 338.298L595.376 318.59L587.493 332.587L591 344.5L607 353.5L622.486 352.295L630.37 338.298Z" fill="#2F2F2F" stroke="black" stroke-width="6" stroke-linecap="round"/>
<path d="M125.109 265.015C122.839 257.087 105.255 250.308 96.7475 247.909C94.9419 246.45 91.4136 242.676 91.7447 239.25C92.1585 234.969 111.323 222.164 126.908 213.159C142.494 204.154 160.061 194.581 165.911 198.709C171.76 202.836 165.612 227.176 169.701 239.25C173.79 251.324 247.418 305.796 256.5 311.521C265.582 317.245 286.621 335.694 289.093 346.97L289.124 347.108C291.387 357.422 293.929 369.007 226.262 408.103C158.292 447.375 153.434 429.971 148.565 423.545C143.697 417.118 127.948 274.924 125.109 265.015Z" fill="#837F85" stroke="black" stroke-width="2"/>
<path fill-rule="evenodd" clip-rule="evenodd" d="M127.321 275.864C131.762 275.222 143.12 272.625 153.018 267.368C162.915 262.112 172.047 252.331 175.376 248.098L175.769 247.223C194.399 266.549 248.778 306.654 256.5 311.521C265.582 317.245 286.621 335.694 289.094 346.97L289.124 347.108C291.387 357.422 293.929 369.007 226.262 408.103C162.94 444.69 154.393 432.087 149.584 424.996C149.231 424.475 148.898 423.984 148.565 423.545C145.565 419.583 138.429 364.032 132.732 319.679C130.461 302.002 128.419 286.105 126.958 275.959L127.321 275.864Z" fill="#203D99"/>
<path d="M127.321 275.864L127.178 274.874L127.121 274.882L127.066 274.897L127.321 275.864ZM175.376 248.098L176.162 248.716L176.238 248.62L176.289 248.507L175.376 248.098ZM175.769 247.223L176.489 246.529L175.462 245.464L174.856 246.814L175.769 247.223ZM256.5 311.521L255.967 312.367L256.5 311.521ZM289.094 346.97L288.117 347.184L288.117 347.184L289.094 346.97ZM289.124 347.108L290.101 346.894L290.101 346.894L289.124 347.108ZM149.584 424.996L148.757 425.557L148.757 425.557L149.584 424.996ZM148.565 423.545L147.768 424.149L147.768 424.149L148.565 423.545ZM132.732 319.679L131.74 319.806L132.732 319.679ZM126.958 275.959L126.703 274.992L125.841 275.219L125.968 276.102L126.958 275.959ZM152.549 266.485C142.78 271.673 131.541 274.244 127.178 274.874L127.464 276.853C131.983 276.201 143.46 273.577 153.487 268.252L152.549 266.485ZM174.59 247.48C171.302 251.662 162.272 261.321 152.549 266.485L153.487 268.252C163.559 262.902 172.793 253 176.162 248.716L174.59 247.48ZM174.856 246.814L174.464 247.689L176.289 248.507L176.681 247.633L174.856 246.814ZM175.049 247.917C184.422 257.641 202.731 272.54 219.614 285.585C236.498 298.633 252.059 309.904 255.967 312.367L257.033 310.675C253.218 308.271 237.729 297.056 220.836 284.003C203.941 270.948 185.746 256.132 176.489 246.529L175.049 247.917ZM255.967 312.367C260.429 315.179 267.901 321.171 274.566 327.869C277.895 331.214 281.003 334.716 283.424 338.065C285.86 341.432 287.543 344.566 288.117 347.184L290.07 346.756C289.408 343.736 287.534 340.335 285.045 336.893C282.543 333.433 279.359 329.85 275.984 326.458C269.241 319.682 261.653 313.587 257.033 310.675L255.967 312.367ZM288.117 347.184L288.147 347.323L290.101 346.894L290.07 346.755L288.117 347.184ZM288.147 347.323C288.715 349.911 289.252 352.397 288.785 355.335C288.319 358.259 286.837 361.734 283.148 366.173C275.732 375.096 259.592 387.691 225.762 407.238L226.762 408.969C260.6 389.419 277.022 376.673 284.686 367.451C288.537 362.818 290.224 359.02 290.76 355.649C291.294 352.292 290.664 349.462 290.101 346.894L288.147 347.323ZM225.762 407.238C194.115 425.523 176.327 431.407 165.931 431.93C160.772 432.189 157.493 431.126 155.235 429.655C152.956 428.17 151.618 426.213 150.412 424.434L148.757 425.557C149.955 427.324 151.489 429.601 154.143 431.331C156.82 433.074 160.536 434.204 166.031 433.927C176.941 433.378 195.088 427.27 226.762 408.969L225.762 407.238ZM150.412 424.434C150.062 423.919 149.714 423.405 149.363 422.941L147.768 424.149C148.082 424.563 148.4 425.031 148.757 425.557L150.412 424.434ZM149.363 422.941C149.279 422.831 149.117 422.516 148.901 421.888C148.696 421.291 148.471 420.501 148.228 419.522C147.742 417.568 147.199 414.923 146.61 411.702C145.434 405.263 144.085 396.576 142.65 386.616C139.78 366.698 136.572 341.73 133.723 319.551L131.74 319.806C134.588 341.981 137.797 366.965 140.67 386.901C142.106 396.868 143.459 405.585 144.643 412.061C145.234 415.298 145.786 417.99 146.287 420.005C146.537 421.011 146.778 421.864 147.01 422.538C147.231 423.18 147.476 423.763 147.768 424.149L149.363 422.941ZM133.723 319.551C131.453 301.879 129.41 285.972 127.948 275.817L125.968 276.102C127.428 286.238 129.469 302.126 131.74 319.806L133.723 319.551ZM127.066 274.897L126.703 274.992L127.213 276.926L127.576 276.831L127.066 274.897Z" fill="black"/>
<path d="M167.003 199.753C151.152 215.767 93.5029 240.801 91.8263 240.13C90.1497 239.46 91.5029 237.353 93.5029 235.753C96.0029 233.753 113.503 220.253 124.503 214.253C135.503 208.253 159.503 194.753 164.003 197.253C166.533 198.658 167 199 167.003 199.753Z" fill="#383838" stroke="black" stroke-width="2" stroke-linecap="round"/>
<path d="M692 163.113L707.866 111" stroke="#DFBF43" stroke-opacity="0.5" stroke-width="6" stroke-linecap="round"/>
<path d="M700 312L721.419 362.087" stroke="#DFBF43" stroke-opacity="0.5" stroke-width="6" stroke-linecap="round"/>
<path d="M736 269L796 293" stroke="#DFBF43" stroke-opacity="0.5" stroke-width="6" stroke-linecap="round"/>
<path d="M730 202L775 178" stroke="#DFBF43" stroke-opacity="0.5" stroke-width="6" stroke-linecap="round"/>
<path d="M631 168L611 113" stroke="#DFBF43" stroke-opacity="0.5" stroke-width="6" stroke-linecap="round"/>
<defs>
<filter id="filter0_f_47_116" x="542.735" y="124.217" width="236.476" height="236.476" filterUnits="userSpaceOnUse" color-interpolation-filters="sRGB">
<feFlood flood-opacity="0" result="BackgroundImageFix"/>
<feBlend mode="normal" in="SourceGraphic" in2="BackgroundImageFix" result="shape"/>
<feGaussianBlur stdDeviation="37.6" result="effect1_foregroundBlur_47_116"/>
</filter>
<filter id="filter1_d_47_116" x="628.083" y="225.632" width="64.5276" height="46.4531" filterUnits="userSpaceOnUse" color-interpolation-filters="sRGB">
<feFlood flood-opacity="0" result="BackgroundImageFix"/>
<feColorMatrix in="SourceAlpha" type="matrix" values="0 0 0 0 0 0 0 0 0 0 0 0 0 0 0 0 0 0 127 0" result="hardAlpha"/>
<feOffset dy="4"/>
<feGaussianBlur stdDeviation="2"/>
<feComposite in2="hardAlpha" operator="out"/>
<feColorMatrix type="matrix" values="0 0 0 0 0 0 0 0 0 0 0 0 0 0 0 0 0 0 0.25 0"/>
<feBlend mode="normal" in2="BackgroundImageFix" result="effect1_dropShadow_47_116"/>
<feBlend mode="normal" in="SourceGraphic" in2="effect1_dropShadow_47_116" result="shape"/>
</filter>
</defs>
</svg>
