<svg width="816" height="720" viewBox="0 0 816 720" fill="none" xmlns="http://www.w3.org/2000/svg">
<path fill-rule="evenodd" clip-rule="evenodd" d="M621.756 644.407C696.756 619.407 839.756 547.007 811.756 457.407C798.044 413.531 773.744 364.206 749.736 315.476L749.735 315.476L749.735 315.475C712.46 239.815 675.89 165.587 680.756 115.407C688.756 32.9067 431.756 -37.0933 263.756 21.9067C95.7556 80.9067 -56.7444 146.907 20.7556 382.407C98.2556 617.907 295.756 707.907 381.256 718.907C402.955 721.698 429.892 718.089 458.208 710.949V668.577H430C431.959 656.235 436.464 629.787 438.815 622.734C439.51 620.649 440.434 617.184 441.566 612.944C445.219 599.252 451.028 577.483 458.208 568.059C463.316 561.354 477.204 556.709 489.272 554.418C490.793 548.646 493.386 538.336 494.643 531.634C495.417 527.505 495.164 523.305 494.584 519.87C490.954 516.054 483.823 501.861 477.867 486.643C476.411 487.213 474.681 487.843 473.487 488.142C471.136 488.729 464.084 482.852 459.971 474.624C455.857 466.395 459.971 456.992 462.909 454.053C464.451 452.511 466.582 453.413 468.309 454.769C465.002 438.012 462.209 417.246 461.146 408.209L452.331 414.087C454.878 409.189 460.911 398.453 464.672 394.691C468.433 390.93 482.694 382.545 489.354 378.822L475.838 375.884C477.405 374.904 482.302 372.945 489.354 372.945C496.406 372.945 500.128 373.729 501.107 374.121C500.715 372.161 499.697 368.126 498.757 367.655C497.816 367.185 506.984 368.243 511.685 368.831C509.922 366.48 506.044 361.66 504.633 361.19C502.872 360.603 521.641 365.296 524.019 365.89L524.025 365.892L524.026 365.892C525.906 366.362 533.037 371.574 536.367 374.121C534.408 369.615 530.608 360.485 531.078 360.015C531.548 359.545 541.852 370.398 546.945 375.884C546.553 373.533 546.005 368.831 546.945 368.831C547.885 368.831 552.821 379.018 555.172 384.112C558.11 381.565 564.105 376.707 564.575 377.647C565.045 378.587 561.636 385.092 559.873 388.226C563.203 387.835 570.216 387.286 571.627 388.226C573.037 389.167 564.379 390.577 559.873 391.165C564.183 393.124 573.155 399.276 574.565 408.209C575.555 414.481 571.54 434.658 567.414 452.495C569.242 450.684 572.064 448.834 573.977 450.747C576.916 453.686 581.029 463.09 576.916 471.318C572.802 479.547 565.75 485.424 563.399 484.836C562.332 484.57 560.837 484.038 559.492 483.521C559.423 483.748 559.352 483.986 559.277 484.234C556.401 493.797 549.198 517.742 540.481 520.467C540.164 520.566 539.842 520.661 539.513 520.751C539.045 524.62 538.819 528.715 539.305 531.634C540.118 536.514 543.334 547.018 545.455 553.571C552.027 554.238 559.313 555.334 565.75 557.48C577.666 561.453 578.076 562.137 584.439 572.762C584.666 573.141 584.9 573.532 585.143 573.937C590.09 582.182 601.121 624.33 608.253 651.625C613.145 649.084 617.666 646.663 621.756 644.407ZM582.347 664.478C582.06 664.614 581.772 664.75 581.484 664.887C579.671 646.484 577.844 623.905 576.916 611.567L583.399 663.978C583.049 664.144 582.698 664.311 582.347 664.478Z" fill="#BCF2CE"/>
<circle cx="208.5" cy="394.5" r="151.5" fill="#55999D" fill-opacity="0.62"/>
<circle cx="208.5" cy="394.5" r="150" stroke="black" stroke-opacity="0.41" stroke-width="3"/>
<path d="M121.992 484.724C120.301 493.18 132.092 499.052 138.199 500.931C139.608 500.931 142.85 500.226 144.541 497.408C146.655 493.885 139.608 489.657 140.313 486.134C141.018 482.61 147.359 481.201 152.997 479.087C158.634 476.973 172.727 471.336 177.659 469.222C182.592 467.108 179.069 464.289 184.001 462.88C188.934 461.471 196.685 462.88 203.732 460.766C210.778 458.652 210.778 450.901 215.711 445.969C220.643 441.036 229.099 437.513 229.099 433.285C229.099 429.057 224.166 426.943 221.348 424.124C218.529 421.306 214.301 422.01 209.369 417.078C204.436 412.145 198.799 396.643 196.685 395.234C194.571 393.824 191.752 393.12 189.639 391.71C187.947 390.583 186.115 384.664 185.411 381.845C179.304 377.147 166.526 367.47 164.271 366.343C161.452 364.933 149.473 365.638 146.655 367.752C143.836 369.866 145.95 374.798 141.722 376.912C137.494 379.026 135.38 379.026 132.562 381.845C129.743 384.664 138.199 424.829 140.313 429.761C142.427 434.694 136.085 443.854 132.562 450.901C129.039 457.947 124.106 474.154 121.992 484.724Z" fill="#E1E5B9"/>
<path d="M121.992 484.724C120.301 493.18 132.092 499.052 138.199 500.931C139.608 500.931 142.85 500.226 144.541 497.408C146.655 493.885 139.608 489.657 140.313 486.134C141.018 482.61 147.359 481.201 152.997 479.087C158.634 476.973 172.727 471.336 177.659 469.222C182.592 467.108 179.069 464.289 184.001 462.88C188.934 461.471 196.685 462.88 203.732 460.766C210.778 458.652 210.778 450.901 215.711 445.969C220.643 441.036 229.099 437.513 229.099 433.285C229.099 429.057 224.166 426.943 221.348 424.124C218.529 421.306 214.301 422.01 209.369 417.078C204.436 412.145 198.799 396.643 196.685 395.234C194.571 393.824 191.752 393.12 189.639 391.71C187.947 390.583 186.115 384.664 185.411 381.845C179.304 377.147 166.526 367.47 164.271 366.343C161.452 364.933 149.473 365.638 146.655 367.752C143.836 369.866 145.95 374.798 141.722 376.912C137.494 379.026 135.38 379.026 132.562 381.845C129.743 384.664 138.199 424.829 140.313 429.761C142.427 434.694 136.085 443.854 132.562 450.901C129.039 457.947 124.106 474.154 121.992 484.724Z" fill="#E1E5B9"/>
<path d="M121.992 484.724C120.301 493.18 132.092 499.052 138.199 500.931C139.608 500.931 142.85 500.226 144.541 497.408C146.655 493.885 139.608 489.657 140.313 486.134C141.018 482.61 147.359 481.201 152.997 479.087C158.634 476.973 172.727 471.336 177.659 469.222C182.592 467.108 179.069 464.289 184.001 462.88C188.934 461.471 196.685 462.88 203.732 460.766C210.778 458.652 210.778 450.901 215.711 445.969C220.643 441.036 229.099 437.513 229.099 433.285C229.099 429.057 224.166 426.943 221.348 424.124C218.529 421.306 214.301 422.01 209.369 417.078C204.436 412.145 198.799 396.643 196.685 395.234C194.571 393.824 191.752 393.12 189.639 391.71C187.947 390.583 186.115 384.664 185.411 381.845C179.304 377.147 166.526 367.47 164.271 366.343C161.452 364.933 149.473 365.638 146.655 367.752C143.836 369.866 145.95 374.798 141.722 376.912C137.494 379.026 135.38 379.026 132.562 381.845C129.743 384.664 138.199 424.829 140.313 429.761C142.427 434.694 136.085 443.854 132.562 450.901C129.039 457.947 124.106 474.154 121.992 484.724Z" fill="#E1E5B9"/>
<path d="M121.992 484.724C120.301 493.18 132.092 499.052 138.199 500.931C139.608 500.931 142.85 500.226 144.541 497.408C146.655 493.885 139.608 489.657 140.313 486.134C141.018 482.61 147.359 481.201 152.997 479.087C158.634 476.973 172.727 471.336 177.659 469.222C182.592 467.108 179.069 464.289 184.001 462.88C188.934 461.471 196.685 462.88 203.732 460.766C210.778 458.652 210.778 450.901 215.711 445.969C220.643 441.036 229.099 437.513 229.099 433.285C229.099 429.057 224.166 426.943 221.348 424.124C218.529 421.306 214.301 422.01 209.369 417.078C204.436 412.145 198.799 396.643 196.685 395.234C194.571 393.824 191.752 393.12 189.639 391.71C187.947 390.583 186.115 384.664 185.411 381.845C179.304 377.147 166.526 367.47 164.271 366.343C161.452 364.933 149.473 365.638 146.655 367.752C143.836 369.866 145.95 374.798 141.722 376.912C137.494 379.026 135.38 379.026 132.562 381.845C129.743 384.664 138.199 424.829 140.313 429.761C142.427 434.694 136.085 443.854 132.562 450.901C129.039 457.947 124.106 474.154 121.992 484.724Z" stroke="#5B5B5B" stroke-width="2"/>
<path d="M348.559 401.93C350.555 402.317 354.529 407.071 356.267 409.399L356.267 387.424L354 365.45L347.5 341.725L337.5 321.5L329.692 325.801C325.958 329.655 330.296 330.896 326.29 334.1C322.283 337.304 314.589 338.995 308.904 343.665C303.22 348.335 306.212 355.486 303.565 361.94C300.918 368.394 294.478 374.908 296.11 378.808C297.742 382.709 303.108 382.755 306.796 384.267C310.484 385.779 314.112 383.497 320.567 386.144C327.021 388.79 338.205 400.916 340.699 401.4C343.193 401.884 346.065 401.446 348.559 401.93Z" fill="#E1E5B9"/>
<path d="M348.559 401.93C350.555 402.317 354.529 407.071 356.267 409.399L356.267 387.424L354 365.45L347.5 341.725L337.5 321.5L329.692 325.801C325.958 329.655 330.296 330.896 326.29 334.1C322.283 337.304 314.589 338.995 308.904 343.665C303.22 348.335 306.212 355.486 303.565 361.94C300.918 368.394 294.478 374.908 296.11 378.808C297.742 382.709 303.108 382.755 306.796 384.267C310.484 385.779 314.112 383.497 320.567 386.144C327.021 388.79 338.205 400.916 340.699 401.4C343.193 401.884 346.065 401.446 348.559 401.93Z" fill="#E1E5B9"/>
<path d="M348.559 401.93C350.555 402.317 354.529 407.071 356.267 409.399L356.267 387.424L354 365.45L347.5 341.725L337.5 321.5L329.692 325.801C325.958 329.655 330.296 330.896 326.29 334.1C322.283 337.304 314.589 338.995 308.904 343.665C303.22 348.335 306.212 355.486 303.565 361.94C300.918 368.394 294.478 374.908 296.11 378.808C297.742 382.709 303.108 382.755 306.796 384.267C310.484 385.779 314.112 383.497 320.567 386.144C327.021 388.79 338.205 400.916 340.699 401.4C343.193 401.884 346.065 401.446 348.559 401.93Z" fill="#E1E5B9"/>
<path d="M348.559 401.93C350.555 402.317 354.529 407.071 356.267 409.399L356.267 387.424L354 365.45L347.5 341.725L337.5 321.5L329.692 325.801C325.958 329.655 330.296 330.896 326.29 334.1C322.283 337.304 314.589 338.995 308.904 343.665C303.22 348.335 306.212 355.486 303.565 361.94C300.918 368.394 294.478 374.908 296.11 378.808C297.742 382.709 303.108 382.755 306.796 384.267C310.484 385.779 314.112 383.497 320.567 386.144C327.021 388.79 338.205 400.916 340.699 401.4C343.193 401.884 346.065 401.446 348.559 401.93Z" stroke="#5B5B5B" stroke-width="2"/>
<path d="M121.123 335.309C122.936 343.74 134.911 351.075 141.018 352.954C142.427 352.954 141.44 354.335 143.132 351.516C145.246 347.993 142.427 341.68 143.132 338.157C143.836 334.634 159.174 329.672 164.812 327.558C170.449 325.444 168.335 316.988 173.267 314.874C178.2 312.76 179.609 314.199 184.542 312.789C189.474 311.38 197.226 306.419 204.272 304.305C211.319 302.191 218.027 307.722 224.707 305.714C236.522 302.162 231.918 289.536 231.918 285.308C231.918 281.08 235.981 274.005 233.163 271.186C230.344 268.367 222.5 265.5 217 262L204.272 258.5C199.34 258.5 186.201 254.936 180 255.5C173.799 256.064 157.848 262.026 152.5 263.435C148.272 265.549 143.836 271.186 141.018 274.005C138.199 276.823 135.242 277.91 132.398 282.46C128.875 288.098 126.76 299.372 123.237 306.419C119.714 313.465 118.1 321.245 121.123 335.309Z" fill="#E1E5B9"/>
<path d="M121.123 335.309C122.936 343.74 134.911 351.075 141.018 352.954C142.427 352.954 141.44 354.335 143.132 351.516C145.246 347.993 142.427 341.68 143.132 338.157C143.836 334.634 159.174 329.672 164.812 327.558C170.449 325.444 168.335 316.988 173.267 314.874C178.2 312.76 179.609 314.199 184.542 312.789C189.474 311.38 197.226 306.419 204.272 304.305C211.319 302.191 218.027 307.722 224.707 305.714C236.522 302.162 231.918 289.536 231.918 285.308C231.918 281.08 235.981 274.005 233.163 271.186C230.344 268.367 222.5 265.5 217 262L204.272 258.5C199.34 258.5 186.201 254.936 180 255.5C173.799 256.064 157.848 262.026 152.5 263.435C148.272 265.549 143.836 271.186 141.018 274.005C138.199 276.823 135.242 277.91 132.398 282.46C128.875 288.098 126.76 299.372 123.237 306.419C119.714 313.465 118.1 321.245 121.123 335.309Z" fill="#E1E5B9"/>
<path d="M121.123 335.309C122.936 343.74 134.911 351.075 141.018 352.954C142.427 352.954 141.44 354.335 143.132 351.516C145.246 347.993 142.427 341.68 143.132 338.157C143.836 334.634 159.174 329.672 164.812 327.558C170.449 325.444 168.335 316.988 173.267 314.874C178.2 312.76 179.609 314.199 184.542 312.789C189.474 311.38 197.226 306.419 204.272 304.305C211.319 302.191 218.027 307.722 224.707 305.714C236.522 302.162 231.918 289.536 231.918 285.308C231.918 281.08 235.981 274.005 233.163 271.186C230.344 268.367 222.5 265.5 217 262L204.272 258.5C199.34 258.5 186.201 254.936 180 255.5C173.799 256.064 157.848 262.026 152.5 263.435C148.272 265.549 143.836 271.186 141.018 274.005C138.199 276.823 135.242 277.91 132.398 282.46C128.875 288.098 126.76 299.372 123.237 306.419C119.714 313.465 118.1 321.245 121.123 335.309Z" fill="#E1E5B9"/>
<path d="M121.123 335.309C122.936 343.74 134.911 351.075 141.018 352.954C142.427 352.954 141.44 354.335 143.132 351.516C145.246 347.993 142.427 341.68 143.132 338.157C143.836 334.634 159.174 329.672 164.812 327.558C170.449 325.444 168.335 316.988 173.267 314.874C178.2 312.76 179.609 314.199 184.542 312.789C189.474 311.38 197.226 306.419 204.272 304.305C211.319 302.191 218.027 307.722 224.707 305.714C236.522 302.162 231.918 289.536 231.918 285.308C231.918 281.08 235.981 274.005 233.163 271.186C230.344 268.367 222.5 265.5 217 262L204.272 258.5C199.34 258.5 186.201 254.936 180 255.5C173.799 256.064 157.848 262.026 152.5 263.435C148.272 265.549 143.836 271.186 141.018 274.005C138.199 276.823 135.242 277.91 132.398 282.46C128.875 288.098 126.76 299.372 123.237 306.419C119.714 313.465 118.1 321.245 121.123 335.309Z" stroke="#5B5B5B" stroke-width="2"/>
<path d="M249 184V91.5094M249 184H324.191M249 184L285.383 145.057M249 91.5094L285.383 55M249 91.5094H324.191M285.383 55H363M285.383 55V145.057M363 55V145.057M363 55L324.191 91.5094M363 145.057L324.191 184M363 145.057H285.383M324.191 184V91.5094" stroke="#5B5B5B" stroke-width="2"/>
<path d="M322 526.5L320 536L381 573.5C382.5 566.5 382.8 549.1 372 535.5C361.2 521.9 334.167 523.5 322 526.5Z" fill="white" stroke="#839187"/>
<path d="M414 548.5C435.2 542.9 470.833 549.5 486 553.5L497.5 657.5L494 661L490 660L482 565.5L389.5 585L381.5 569.5C383.5 564.833 392.8 554.1 414 548.5Z" fill="white"/>
<path d="M482 565.5L486 553.5M482 565.5L389.5 585L381.5 569.5C383.5 564.833 392.8 554.1 414 548.5C435.2 542.9 470.833 549.5 486 553.5M482 565.5L490 660L494 661L497.5 657.5L486 553.5" stroke="#839187"/>
<path d="M348 630.885C345.5 618.885 339.2 591.185 334 576.385C328.8 561.585 321.833 543.218 319 535.885C327.833 534.718 347.8 533.785 357 539.385C366.2 544.985 376.5 562.718 380.5 570.885C392.5 566.385 420.2 557.385 435 557.385C449.8 557.385 473.167 561.385 483 563.385L493.5 660.885C487.667 661.718 471.9 664.285 455.5 667.885C439.1 671.485 418.667 678.718 410.5 681.885C405.667 674.551 392.1 657.285 376.5 646.885C360.9 636.485 351 631.885 348 630.885Z" fill="#7CC492"/>
<path d="M380.5 570.885C376.5 562.718 366.2 544.985 357 539.385C347.8 533.785 327.833 534.718 319 535.885C321.833 543.218 328.8 561.585 334 576.385C339.2 591.185 345.5 618.885 348 630.885C351 631.885 360.9 636.485 376.5 646.885C392.1 657.285 405.667 674.551 410.5 681.885M380.5 570.885C392.5 566.385 420.2 557.385 435 557.385C449.8 557.385 473.167 561.385 483 563.385L493.5 660.885C487.667 661.718 471.9 664.285 455.5 667.885C439.1 671.485 418.667 678.718 410.5 681.885M380.5 570.885L410.5 681.885" stroke="#839187" stroke-width="2"/>
<path d="M413.074 600.336C415.499 596.354 417.818 590.719 423.575 591.742C425.771 592.133 426.516 595.076 427.728 596.616C429.463 598.823 432.466 598.432 434.911 597.803C438.173 596.962 441.251 595.461 444.466 594.452C445.408 594.156 448.236 592.729 449.276 593.249C449.853 593.538 450.332 594.078 450.847 594.452C452.573 595.704 454.589 596.295 456.667 596.68C461.135 597.508 465.699 597.367 470.215 597.161" stroke="#839187" stroke-opacity="0.47" stroke-width="3" stroke-linecap="round"/>
<path d="M417.403 624C417.93 620.662 419.946 616.476 423.11 614.893C423.757 614.57 424.593 613.966 424.97 614.797C426.223 617.562 427.088 620.373 429.764 622.156C435.822 626.195 444.732 620.51 450.174 617.571C451.053 617.096 451.349 616.754 452.306 616.946C455.506 617.586 458.889 617.363 462.134 617.363" stroke="#839187" stroke-opacity="0.47" stroke-width="3" stroke-linecap="round"/>
<path d="M422.164 647.732C422.36 642.234 427.461 639.262 432.469 638.478C439.238 637.419 439.57 643.259 443.931 646.575C449.548 650.848 455.121 643.962 459.335 640.844C462.905 638.203 469.2 640.408 473.268 640.634" stroke="#839187" stroke-opacity="0.47" stroke-width="3" stroke-linecap="round"/>
<path d="M73.97 220.2C73.1227 220.2 72.453 219.913 71.961 219.339C71.4963 218.792 71.264 218.013 71.264 217.002C71.264 215.635 71.5647 213.312 72.166 210.032C72.7947 206.752 73.888 201.326 75.446 193.755C75.2 191.295 75.077 189.163 75.077 187.359C75.077 184.708 75.61 182.781 76.676 181.578C77.742 180.348 79.1497 179.733 80.899 179.733C81.9923 179.733 82.8943 180.034 83.605 180.635C84.3157 181.209 84.671 181.947 84.671 182.849C84.671 183.724 84.3703 184.434 83.769 184.981C83.1677 185.528 82.4023 185.801 81.473 185.801C80.1883 185.801 79.1087 185.418 78.234 184.653L77.824 184.94L80.038 194.985C78.9173 199.14 77.988 203.335 77.25 207.572C76.512 211.809 76.143 214.925 76.143 216.92C76.143 217.959 76.4437 218.683 77.045 219.093C75.8697 219.831 74.8447 220.2 73.97 220.2ZM71.223 197.281C71.0317 196.844 70.936 196.393 70.936 195.928C70.936 194.971 71.3597 194.274 72.207 193.837C73.0817 193.372 74.1887 193.14 75.528 193.14C76.5393 193.14 77.8377 193.017 79.423 192.771C81.0083 192.525 82.375 192.211 83.523 191.828C83.7143 192.265 83.81 192.716 83.81 193.181C83.81 194.11 83.3727 194.807 82.498 195.272C81.6507 195.737 80.5573 195.969 79.218 195.969C78.2067 195.969 76.9083 196.092 75.323 196.338C73.765 196.584 72.3983 196.898 71.223 197.281ZM94.4543 218.396C92.7596 218.396 91.434 217.152 90.4773 214.665C89.548 212.205 89.0833 208.706 89.0833 204.169C89.0833 200.506 89.5753 196.721 90.5593 192.812C91.5706 188.876 92.828 185.623 94.3313 183.054C95.862 180.457 97.3243 179.159 98.7183 179.159C99.2103 179.159 99.634 179.227 99.9893 179.364C100.345 179.501 100.741 179.774 101.178 180.184C99.757 181.496 98.4586 183.368 97.2833 185.801C96.1353 188.234 95.2196 190.926 94.5363 193.878C93.8803 196.83 93.5523 199.714 93.5523 202.529C93.5523 205.809 93.894 208.597 94.5773 210.893C95.288 213.189 96.395 215.198 97.8983 216.92C97.4336 217.385 96.887 217.74 96.2583 217.986C95.657 218.259 95.0556 218.396 94.4543 218.396ZM122.869 213.025C121.83 213.025 120.915 212.683 120.122 212C119.357 211.289 118.537 210.073 117.662 208.351L110.282 194.944C109.435 193.441 108.615 192.32 107.822 191.582C107.029 190.817 106.059 190.229 104.911 189.819C105.376 189.054 105.95 188.466 106.633 188.056C107.344 187.619 108.095 187.4 108.888 187.4C109.954 187.4 110.87 187.755 111.635 188.466C112.428 189.149 113.261 190.366 114.136 192.115L121.475 205.481C122.322 206.984 123.142 208.119 123.935 208.884C124.755 209.649 125.725 210.237 126.846 210.647C126.381 211.412 125.794 212 125.083 212.41C124.4 212.82 123.662 213.025 122.869 213.025ZM105.731 213.025C105.02 213.025 104.446 212.765 104.009 212.246C103.572 211.754 103.353 211.098 103.353 210.278C103.353 209.349 103.777 208.365 104.624 207.326C105.471 206.26 107.043 204.88 109.339 203.185L114.505 199.167L115.899 201.668C113.302 203.445 111.389 205.071 110.159 206.547C108.956 208.023 108.355 209.321 108.355 210.442C108.355 210.989 108.464 211.508 108.683 212C108.355 212.273 107.918 212.506 107.371 212.697C106.824 212.916 106.278 213.025 105.731 213.025ZM115.448 198.716C118.045 196.939 119.958 195.327 121.188 193.878C122.418 192.402 123.033 191.104 123.033 189.983C123.033 189.382 122.924 188.862 122.705 188.425C123.033 188.124 123.457 187.878 123.976 187.687C124.523 187.468 125.069 187.359 125.616 187.359C126.354 187.359 126.942 187.619 127.379 188.138C127.816 188.63 128.035 189.3 128.035 190.147C128.035 191.022 127.598 192.006 126.723 193.099C125.876 194.165 124.318 195.532 122.049 197.199L116.842 201.217L115.448 198.716ZM135.878 179.159C137.573 179.159 138.885 180.403 139.814 182.89C140.771 185.35 141.249 188.849 141.249 193.386C141.249 197.049 140.743 200.848 139.732 204.784C138.748 208.693 137.491 211.932 135.96 214.501C134.457 217.098 133.008 218.396 131.614 218.396C131.122 218.396 130.698 218.328 130.343 218.191C129.988 218.054 129.591 217.781 129.154 217.371C130.575 216.059 131.86 214.187 133.008 211.754C134.183 209.321 135.099 206.629 135.755 203.677C136.438 200.725 136.78 197.841 136.78 195.026C136.78 191.746 136.425 188.958 135.714 186.662C135.031 184.366 133.937 182.357 132.434 180.635C132.899 180.17 133.432 179.815 134.033 179.569C134.662 179.296 135.277 179.159 135.878 179.159Z" fill="#5B5B5B"/>
<path d="M420.031 204.147H453.549M453.549 204.147L473.036 175.294M453.549 204.147L473.036 233M473.036 175.294L457.446 144.881M473.036 175.294H506.554L522.923 144.881L506.554 121.486M457.446 144.881L473.036 121.486M457.446 144.881H423.928L409.118 121.486L423.928 94.1927M473.036 121.486H506.554M473.036 121.486L457.446 94.1927M506.554 121.486L519.805 94.1927M423.928 94.1927H457.446M423.928 94.1927L406 63M457.446 94.1927L473.036 66.1193H506.554L519.805 94.1927M519.805 94.1927H558" stroke="#5B5B5B" stroke-width="2"/>
<path d="M625.355 336.186C621.102 337.151 621.368 345.831 622.032 350.051C620.703 351.86 612.064 345.229 609.405 350.051C606.747 354.874 619.374 357.285 618.045 360.299C616.716 363.313 602.76 366.327 604.089 368.739C605.418 371.15 621.011 375.34 622.032 376.575C624.026 378.987 616.051 394.66 622.032 394.66C628.013 394.66 633.994 384.412 639.311 384.412C644.627 384.412 650.608 395.263 654.595 392.852C658.583 390.441 652.602 378.987 654.595 376.575C656.589 374.164 669.216 380.795 669.216 376.575C669.216 372.356 659.247 366.93 658.583 364.519C657.918 362.108 669.88 357.285 669.216 351.859C668.551 346.434 657.918 354.271 654.595 351.859C651.273 349.448 657.254 337.995 652.602 336.186C647.95 334.378 641.969 345.831 639.311 345.229C636.652 344.626 630.671 334.98 625.355 336.186Z" stroke="#5B5B5B" stroke-width="2"/>
<path d="M648.279 364.519C648.279 369.537 643.762 373.767 637.981 373.767C632.2 373.767 627.684 369.537 627.684 364.519C627.684 359.501 632.2 355.271 637.981 355.271C643.762 355.271 648.279 359.501 648.279 364.519Z" stroke="#5B5B5B" stroke-width="2"/>
<path d="M672.343 295.162C668.791 295.968 669.013 303.218 669.568 306.743C668.458 308.253 661.241 302.715 659.021 306.743C656.801 310.771 667.347 312.785 666.237 315.302C665.127 317.82 653.471 320.337 654.581 322.351C655.691 324.366 668.715 327.865 669.568 328.897C671.233 330.911 664.572 344.003 669.568 344.003C674.563 344.003 679.559 335.443 684 335.443C688.44 335.443 693.436 344.506 696.766 342.492C700.097 340.478 695.101 330.911 696.766 328.897C698.431 326.883 708.978 332.422 708.978 328.897C708.978 325.373 700.652 320.841 700.097 318.827C699.542 316.813 709.533 312.785 708.978 308.253C708.423 303.721 699.542 310.267 696.766 308.253C693.991 306.239 698.986 296.673 695.101 295.162C691.215 293.651 686.22 303.218 684 302.715C681.779 302.211 676.784 294.155 672.343 295.162Z" stroke="#5B5B5B" stroke-width="2"/>
<path d="M691.326 318.827C691.326 322.913 687.642 326.387 682.889 326.387C678.136 326.387 674.453 322.913 674.453 318.827C674.453 314.742 678.136 311.268 682.889 311.268C687.642 311.268 691.326 314.742 691.326 318.827Z" stroke="#5B5B5B" stroke-width="2"/>
<circle cx="622.214" cy="202.5" r="57.5" fill="#78DE9A"/>
<path d="M565.461 212.208C554.26 214.448 535.591 230.13 537.084 237.598C538.578 245.065 589.357 249.545 637.896 233.863C692.961 216.073 711.078 180.097 708.838 171.883C706.394 162.922 673.74 167.403 670.007 170.389" stroke="#5B5B5B" stroke-width="2"/>
</svg>
