<svg width="778" height="639" viewBox="0 0 778 639" fill="none" xmlns="http://www.w3.org/2000/svg">
<path d="M17.3944 210.5C68.5 141.5 110.106 30.0002 274.5 2.00017C392.606 -8.99963 684.606 51.5 741 140C794.767 224.378 775.5 299.5 766.5 428C757.5 556.5 690 629.5 574 635C458 640.5 304 646.5 164.5 601.5C25.0002 556.5 -31.3463 276.307 17.3944 210.5Z" fill="#DDE4FF"/>
<line x1="151.794" y1="192.928" x2="238.794" y2="137.928" stroke="#1B3C9C" stroke-opacity="0.72" stroke-width="12"/>
<line x1="255.013" y1="331.397" x2="242.013" y2="135.397" stroke="#1B3C9C" stroke-opacity="0.72" stroke-width="12"/>
<line x1="624.376" y1="363.09" x2="543.376" y2="145.09" stroke="#1B3C9C" stroke-opacity="0.72" stroke-width="12"/>
<line x1="99.9376" y1="230.137" x2="124.938" y2="402.137" stroke="#1B3C9C" stroke-opacity="0.72" stroke-width="12"/>
<line x1="128.129" y1="410.88" x2="362.129" y2="553.88" stroke="#1B3C9C" stroke-opacity="0.72" stroke-width="12"/>
<line x1="431.772" y1="324.056" x2="529.772" y2="150.056" stroke="#1B3C9C" stroke-opacity="0.72" stroke-width="12"/>
<line x1="146.028" y1="226.553" x2="252.028" y2="322.553" stroke="#1B3C9C" stroke-opacity="0.72" stroke-width="12"/>
<line x1="261.308" y1="329.008" x2="397.308" y2="336.008" stroke="#1B3C9C" stroke-opacity="0.72" stroke-width="12"/>
<line x1="234.172" y1="129.002" x2="513.172" y2="137.002" stroke="#1B3C9C" stroke-opacity="0.72" stroke-width="12"/>
<line x1="260.438" y1="326.464" x2="364.438" y2="549.464" stroke="#1B3C9C" stroke-opacity="0.72" stroke-width="12"/>
<line x1="425.443" y1="348.142" x2="606.108" y2="382.103" stroke="#1B3C9C" stroke-opacity="0.72" stroke-width="12"/>
<path d="M608.756 430.679L363.5 552" stroke="#1B3C9C" stroke-opacity="0.72" stroke-width="12"/>
<ellipse cx="241.5" cy="130" rx="13.5" ry="13" fill="white"/>
<ellipse cx="121.5" cy="409" rx="13.5" ry="13" fill="white"/>
<ellipse cx="364.5" cy="552" rx="13.5" ry="13" fill="white"/>
<ellipse cx="255.5" cy="329" rx="13.5" ry="13" fill="white"/>
<ellipse cx="429" cy="334.5" rx="42" ry="40.5" fill="white"/>
<path d="M411.238 319.588C415.739 317.459 420.461 315.901 428.792 315.111C437.123 314.321 447.179 317.896 451.702 321.267C457.355 325.481 443.295 341.203 433.586 347.933C424.23 354.419 416.428 355.867 414.643 351.489C413.842 349.524 405.816 344.905 405.122 335.917C404.427 326.93 406.736 321.718 411.238 319.588Z" fill="#B08A76" stroke="#5B5B5B"/>
<path d="M411.943 334.492C404.364 334.325 405.552 328.5 405.264 326.064H407.666L435.282 326.426C440.973 325.306 452.392 323.088 452.542 323.167C452.73 323.265 452.73 323.726 452.655 323.858C452.595 323.963 441.048 326.492 435.282 327.743C435.332 329.619 435.057 334.492 429.279 334.492C420.949 334.492 421.974 329.619 421.324 327.743H420.273C419.936 329.619 419.746 334.663 411.943 334.492Z" fill="black"/>
<path d="M407.9 328.277H408.8V331.127H407.9V328.277ZM409.281 328.277H411.356V328.877H410.181V329.397H411.171V329.937H410.181V330.517H411.351V331.127H409.281V328.277ZM412.738 328.277C413.128 328.277 413.446 328.314 413.693 328.387C413.943 328.461 414.136 328.599 414.273 328.802C414.413 329.006 414.483 329.297 414.483 329.677C414.483 330.084 414.409 330.394 414.263 330.607C414.116 330.817 413.919 330.957 413.673 331.027C413.426 331.094 413.114 331.127 412.738 331.127H411.738V328.277H412.738ZM413.408 330.447C413.448 330.407 413.476 330.304 413.493 330.137C413.509 329.971 413.518 329.817 413.518 329.677C413.518 329.501 413.504 329.361 413.478 329.257C413.454 329.151 413.411 329.066 413.348 329.002C413.248 328.892 413.076 328.837 412.833 328.837C412.789 328.837 412.724 328.841 412.638 328.847V330.507C412.694 330.514 412.783 330.517 412.903 330.517C413.026 330.517 413.134 330.512 413.228 330.502C413.324 330.489 413.384 330.471 413.408 330.447ZM416.272 331.192C415.775 331.192 415.402 331.076 415.152 330.842C414.905 330.606 414.782 330.227 414.782 329.707C414.782 329.197 414.919 328.826 415.192 328.592C415.465 328.359 415.827 328.242 416.277 328.242C417.224 328.242 417.697 328.714 417.697 329.657C417.697 330.134 417.58 330.509 417.347 330.782C417.117 331.056 416.759 331.192 416.272 331.192ZM416.252 330.602C416.345 330.602 416.424 330.587 416.487 330.557C416.55 330.524 416.6 330.467 416.637 330.387C416.707 330.251 416.742 330.027 416.742 329.717C416.742 329.414 416.707 329.194 416.637 329.057C416.567 328.917 416.439 328.844 416.252 328.837C416.182 328.837 416.109 328.846 416.032 328.862C415.959 328.876 415.912 328.896 415.892 328.922C415.852 328.969 415.82 329.069 415.797 329.222C415.777 329.372 415.767 329.537 415.767 329.717C415.767 329.997 415.794 330.202 415.847 330.332C415.884 330.429 415.935 330.499 416.002 330.542C416.069 330.582 416.152 330.602 416.252 330.602ZM425.53 331.127H424.69L424.625 329.557C424.615 329.247 424.603 329.012 424.59 328.852H424.575C424.535 328.979 424.488 329.176 424.435 329.442L424.41 329.567L424.065 331.127H423.225L422.935 329.722L422.885 329.472C422.815 329.162 422.766 328.956 422.74 328.852H422.725C422.711 329.019 422.7 329.291 422.69 329.667C422.686 329.691 422.685 329.727 422.685 329.777L422.64 331.127H421.795L421.915 328.277H423.345L423.59 329.507L423.65 329.837C423.676 329.734 423.701 329.619 423.725 329.492L423.955 328.277H425.415L425.53 331.127ZM425.976 328.277H426.876V331.127H425.976V328.277ZM425.711 327.577H427.141V328.002H425.711V327.577ZM429.872 329.547V330.972C429.649 331.046 429.437 331.099 429.237 331.132C429.037 331.166 428.869 331.182 428.732 331.182C428.279 331.182 427.924 331.064 427.667 330.827C427.41 330.591 427.282 330.227 427.282 329.737C427.282 329.237 427.417 328.864 427.687 328.617C427.957 328.367 428.337 328.242 428.827 328.242C429.084 328.242 429.392 328.281 429.752 328.357C429.752 328.424 429.745 328.524 429.732 328.657C429.719 328.787 429.705 328.879 429.692 328.932L429.512 328.927C429.292 328.921 429.12 328.917 428.997 328.917C428.627 328.917 428.425 328.939 428.392 328.982C428.339 329.046 428.3 329.144 428.277 329.277C428.257 329.411 428.247 329.539 428.247 329.662C428.247 329.886 428.272 330.059 428.322 330.182C428.372 330.306 428.449 330.392 428.552 330.442C428.655 330.492 428.795 330.517 428.972 330.517H428.992V329.547H429.872ZM431.117 329.047C431.117 329.117 431.152 329.172 431.222 329.212C431.295 329.252 431.409 329.296 431.562 329.342C431.745 329.402 431.895 329.461 432.012 329.517C432.132 329.574 432.235 329.662 432.322 329.782C432.412 329.902 432.457 330.059 432.457 330.252C432.457 330.872 432.054 331.182 431.247 331.182C431.114 331.182 430.95 331.171 430.757 331.147C430.567 331.124 430.394 331.094 430.237 331.057C430.244 330.987 430.257 330.886 430.277 330.752C430.3 330.616 430.322 330.514 430.342 330.447C430.459 330.464 430.634 330.484 430.867 330.507C431.104 330.531 431.282 330.542 431.402 330.542C431.472 330.542 431.514 330.537 431.527 330.527C431.547 330.514 431.562 330.492 431.572 330.462C431.585 330.429 431.592 330.401 431.592 330.377C431.592 330.311 431.56 330.261 431.497 330.227C431.434 330.191 431.325 330.147 431.172 330.097C430.989 330.041 430.837 329.982 430.717 329.922C430.597 329.862 430.492 329.769 430.402 329.642C430.312 329.516 430.267 329.349 430.267 329.142C430.267 328.996 430.3 328.852 430.367 328.712C430.434 328.569 430.502 328.472 430.572 328.422C430.625 328.386 430.735 328.351 430.902 328.317C431.069 328.284 431.225 328.267 431.372 328.267C431.745 328.267 432.05 328.302 432.287 328.372C432.284 328.439 432.272 328.531 432.252 328.647C432.235 328.764 432.217 328.871 432.197 328.967L432.082 328.962C431.649 328.932 431.372 328.917 431.252 328.917C431.202 328.917 431.174 328.919 431.167 328.922C431.154 328.929 431.142 328.944 431.132 328.967C431.122 328.991 431.117 329.017 431.117 329.047Z" fill="white"/>
<path d="M419.608 339.728C419.259 340.475 418.387 342.124 417.695 342.75C418.325 342.5 419.678 342.02 420.05 342.089C420.516 342.176 420.729 342.693 421.324 342.726C421.919 342.76 422.13 342.598 422.55 342.452C422.97 342.305 423.422 342.422 423.963 342.755C424.396 343.021 425.153 343.476 425.478 343.671C425.142 343.162 424.419 342.095 424.216 341.897C424.013 341.698 423.099 340.228 422.667 339.834C422.204 340.224 421.2 341.604 420.883 341.472C420.566 341.34 419.901 340.255 419.608 339.728Z" fill="black" stroke="black"/>
<path d="M423.818 346.213C424.12 345.446 424.891 344.128 425.543 343.462C424.93 343.749 424.425 343.724 424.049 343.678C423.579 343.62 423.521 343.016 422.925 343.019C422.329 343.022 421.881 343.29 421.471 343.462C421.061 343.633 420.676 342.989 420.115 342.69C419.667 342.451 418.054 343.193 417.718 343.019C418.085 343.506 418.872 344.527 419.087 344.713C419.302 344.899 420.267 345.678 420.722 346.045C421.159 345.627 421.741 344.882 422.066 344.995C422.39 345.107 423.493 345.705 423.818 346.213Z" fill="#5B5B5B" stroke="black"/>
<path d="M413.332 339.164C413.232 339.099 421.762 335.049 421.861 335.082C421.96 335.115 422.357 336.333 422.291 336.432C422.225 336.531 413.431 339.23 413.332 339.164Z" fill="black" stroke="black"/>
<ellipse cx="118.5" cy="203.97" rx="50.5" ry="48.9697" fill="white"/>
<path d="M113.286 201.869C113.597 200.516 113.156 199.121 112.896 198.593L123.546 198.275C123.329 199.051 122.948 200.855 123.156 201.869C123.364 202.884 124.281 205.252 124.714 206.309H111.987C112.29 205.393 112.974 203.223 113.286 201.869Z" fill="#DCB142" stroke="black"/>
<path d="M106.273 187.916C106.792 187.493 107.615 188.092 107.961 188.444L110.039 193.624C109.736 193.73 109.026 193.962 108.61 194.047C108.091 194.153 106.532 193.096 105.623 191.616C104.714 190.136 105.623 188.444 106.273 187.916Z" fill="#DCB142" stroke="black"/>
<path d="M130.818 187.322C130.299 186.899 129.476 187.498 129.13 187.85L127.052 193.03C127.355 193.136 128.065 193.368 128.48 193.453C129 193.559 130.558 192.501 131.467 191.022C132.377 189.542 131.467 187.85 130.818 187.322Z" fill="#DCB142" stroke="black"/>
<path d="M105.234 208.421C106.896 206.645 112.766 205.672 115.364 205.672C115.364 205.672 120.558 205.567 122.377 205.672L122.429 205.676C124.245 205.781 126.839 205.932 129 206.518C131.727 207.258 131.727 207.364 133.286 209.478C134.532 211.169 137.528 220.791 139 225.337C138.654 225.443 137.649 225.739 136.403 226.077C135.156 226.415 133.632 226.5 133.026 226.5L131.468 216.246C131.771 219.523 132.506 226.817 133.026 229.777C133.545 232.736 133.242 242.426 133.026 246.901C130.169 246.619 122.974 246.077 117.052 246.161C111.13 246.246 107.398 246.549 106.273 246.69C105.926 243.871 105.234 237.43 105.234 234.216V226.5H99C99.4329 224.28 100.429 219.523 100.948 218.254C101.597 216.669 103.156 210.641 105.234 208.421Z" fill="#1D3AA0" stroke="black"/>
<path d="M113.416 199.861C114.351 200.453 116.922 200.284 118.221 200.284C119.26 200.284 121.753 200.284 123.416 199.861C125.493 199.332 127.182 194.364 127.701 192.99C128.221 191.616 131.338 181.679 130.948 179.671C130.636 178.064 128.654 176.958 127.701 176.605C128.697 176.5 130.61 176.246 130.299 176.077C129.987 175.908 128.437 176.006 127.701 176.077C128.091 175.513 128.844 174.343 128.74 174.174C128.636 174.005 127.312 174.879 126.662 175.337C126.143 174.421 125.052 172.588 124.844 172.588C124.636 172.588 124.758 173.434 124.844 173.857C123.719 172.87 121.442 170.918 121.338 171.003C121.234 171.087 122.074 172.729 122.506 173.54C121.771 173.082 120.195 172.144 119.779 172.06L119.779 172.06C119.26 171.954 115.104 171.108 115.494 171.214C115.805 171.299 116.662 172.165 117.052 172.588C116.013 172.483 113.987 172.292 114.195 172.377C114.403 172.461 114.628 173.187 114.714 173.54C114.498 173.469 113.675 173.328 112.117 173.328C110.558 173.328 109.476 173.681 109.13 173.857L112.117 174.385C110.645 175.055 107.494 176.563 106.662 177.239C105.831 177.916 104.498 179.847 103.935 180.728L105.883 179.671C106.143 181.468 106.87 185.844 107.701 188.973C108.74 192.884 112.247 199.121 113.416 199.861Z" fill="#533200" stroke="black"/>
<ellipse cx="640.5" cy="393.97" rx="50.5" ry="48.9697" fill="white"/>
<path d="M635.286 391.869C635.597 390.516 635.156 389.121 634.896 388.593L645.546 388.275C645.329 389.051 644.948 390.855 645.156 391.869C645.364 392.884 646.281 395.252 646.714 396.309H633.987C634.29 395.393 634.974 393.223 635.286 391.869Z" fill="#DCB142" stroke="black"/>
<path d="M628.273 377.916C628.792 377.493 629.615 378.092 629.961 378.444L632.039 383.624C631.736 383.73 631.026 383.962 630.61 384.047C630.091 384.153 628.532 383.096 627.623 381.616C626.714 380.136 627.623 378.444 628.273 377.916Z" fill="#DCB142" stroke="black"/>
<path d="M652.818 377.322C652.299 376.899 651.476 377.498 651.13 377.85L649.052 383.03C649.355 383.136 650.065 383.368 650.48 383.453C651 383.559 652.558 382.501 653.467 381.022C654.377 379.542 653.467 377.85 652.818 377.322Z" fill="#DCB142" stroke="black"/>
<path d="M627.234 398.421C628.896 396.645 634.766 395.672 637.364 395.672C637.364 395.672 642.558 395.567 644.377 395.672L644.429 395.676C646.245 395.781 648.839 395.932 651 396.518C653.727 397.258 653.727 397.364 655.286 399.478C656.532 401.169 659.528 410.791 661 415.337C660.654 415.443 659.649 415.739 658.403 416.077C657.156 416.415 655.632 416.5 655.026 416.5L653.468 406.246C653.771 409.523 654.506 416.817 655.026 419.777C655.545 422.736 655.242 432.426 655.026 436.901C652.169 436.619 644.974 436.077 639.052 436.161C633.13 436.246 629.398 436.549 628.273 436.69C627.926 433.871 627.234 427.43 627.234 424.216V416.5H621C621.433 414.28 622.429 409.523 622.948 408.254C623.597 406.669 625.156 400.641 627.234 398.421Z" fill="#DFBF43" stroke="black"/>
<path d="M635.416 389.861C636.351 390.453 638.922 390.284 640.221 390.284C641.26 390.284 643.753 390.284 645.416 389.861C647.493 389.332 649.182 384.364 649.701 382.99C650.221 381.616 653.338 371.679 652.948 369.671C652.636 368.064 650.654 366.958 649.701 366.605C650.697 366.5 652.61 366.246 652.299 366.077C651.987 365.908 650.437 366.006 649.701 366.077C650.091 365.513 650.844 364.343 650.74 364.174C650.636 364.005 649.312 364.879 648.662 365.337C648.143 364.421 647.052 362.588 646.844 362.588C646.636 362.588 646.758 363.434 646.844 363.857C645.719 362.87 643.442 360.918 643.338 361.003C643.234 361.087 644.074 362.729 644.506 363.54C643.771 363.082 642.195 362.144 641.779 362.06L641.779 362.06C641.26 361.954 637.104 361.108 637.494 361.214C637.805 361.299 638.662 362.165 639.052 362.588C638.013 362.483 635.987 362.292 636.195 362.377C636.403 362.461 636.628 363.187 636.714 363.54C636.498 363.469 635.675 363.328 634.117 363.328C632.558 363.328 631.476 363.681 631.13 363.857L634.117 364.385C632.645 365.055 629.494 366.563 628.662 367.239C627.831 367.916 626.498 369.847 625.935 370.728L627.883 369.671C628.143 371.468 628.87 375.844 629.701 378.973C630.74 382.884 634.247 389.121 635.416 389.861Z" fill="#533200" stroke="black"/>
<ellipse cx="535" cy="124.5" rx="42" ry="40.5" fill="white"/>
<path d="M528.509 113.762C528.509 117.402 532.498 120.523 535.918 120.523C539.337 120.523 543.326 117.576 543.326 113.762C543.326 109.947 539.717 107 535.918 107C532.118 107 528.509 110.121 528.509 113.762Z" fill="#DFBF43" stroke="#DFBF43" stroke-width="4" stroke-linecap="round"/>
<path d="M535.918 120.523V126.418M535.918 163V126.418M535.918 126.418L523 143.756M535.918 126.418L546.176 132.486L551.875 120.523" stroke="#DFBF43" stroke-width="4" stroke-linecap="round"/>
</svg>
