<svg width="790" height="739" viewBox="0 0 790 739" fill="none" xmlns="http://www.w3.org/2000/svg">
<path d="M382 2.99994C320.077 7.94222 174 46.9999 125.5 77.4999C76.9997 108 16.3583 149.47 2.5 207.5C-11.3583 265.53 38.4739 364.899 42.712 402.5C46.9501 440.101 17.8131 561.004 42.7121 632.5C67.6111 703.996 180.981 747.373 235.547 736.781C290.113 726.189 596.317 741.018 707.568 703.417C818.818 665.815 788.804 443.488 775.5 385C763.366 331.659 730.877 149.987 686.377 72.1358C641.877 -5.7151 443.922 -1.94235 382 2.99994Z" fill="#FCECDC"/>
<path d="M400.207 358.191C401.065 356.474 400.207 326 400.207 326H446.132C446.132 326 445.703 356.903 446.132 358.191C446.562 359.479 458.151 368.492 457.292 369.351C456.433 370.209 389.905 370.209 389.047 369.351C388.189 368.492 399.348 359.908 400.207 358.191Z" fill="#D9D9D9" stroke="black" stroke-width="3"/>
<rect x="227" y="113" width="372" height="211.474" rx="15" fill="#404040" stroke="black" stroke-width="10"/>
<path d="M295.264 191H289.864L286.336 177.32H290.944L292.768 187.376H292.888L294.832 177.32H299.344L301.336 187.376H301.408L303.256 177.32H307.672L304.144 191H298.768L297.136 182.264H296.992L295.264 191ZM309.232 177.32H313.576V182.336H317.296V177.32H321.64V191H317.296V185.096H313.576V191H309.232V177.32ZM324.091 177.32H328.411V191H324.091V177.32ZM330.793 177.32H335.113V187.832H340.705V191H330.793V177.32ZM342.135 177.32H352.095V180.2H346.455V182.696H351.207V185.288H346.455V188.072H352.071V191H342.135V177.32ZM356.687 199.16C355.679 197.384 354.839 195.288 354.167 192.872C353.511 190.472 353.183 188.176 353.183 185.984C353.183 181.792 354.247 177.76 356.375 173.888L359.447 175.016C358.455 177.192 357.719 179.224 357.239 181.112C356.759 183 356.519 184.856 356.519 186.68C356.519 188.488 356.759 190.312 357.239 192.152C357.719 194.008 358.455 195.96 359.447 198.008L356.687 199.16ZM368.017 191H363.697V180.32H359.833V177.32H371.881V180.32H368.017V191ZM385.719 191H381.183L380.367 187.544C380.335 187.416 380.279 187.2 380.199 186.896C380.135 186.576 380.055 186.344 379.959 186.2C379.863 186.04 379.727 185.936 379.551 185.888C379.103 185.904 378.447 185.912 377.583 185.912V191H373.263V177.44C375.199 177.296 377.007 177.224 378.687 177.224C380.207 177.224 381.439 177.352 382.383 177.608C383.327 177.848 384.031 178.272 384.495 178.88C384.975 179.472 385.215 180.288 385.215 181.328C385.215 182.304 384.991 183.072 384.543 183.632C384.095 184.176 383.375 184.504 382.383 184.616V184.76C382.943 184.808 383.407 184.992 383.775 185.312C384.159 185.616 384.415 186.008 384.543 186.488L385.719 191ZM377.583 183.2C377.727 183.216 378.007 183.224 378.423 183.224C379.655 183.224 380.375 183.12 380.583 182.912C380.775 182.72 380.871 182.272 380.871 181.568C380.871 180.912 380.695 180.464 380.343 180.224C380.007 179.984 379.447 179.864 378.663 179.864C378.487 179.864 378.127 179.88 377.583 179.912V183.2ZM399.976 177.32V184.976C399.976 186.56 399.8 187.8 399.448 188.696C399.112 189.576 398.472 190.224 397.528 190.64C396.584 191.056 395.208 191.264 393.4 191.264C392.072 191.264 390.952 191.128 390.04 190.856C389.128 190.568 388.4 190.032 387.856 189.248C387.328 188.464 387.064 187.36 387.064 185.936V177.32H391.384V185.024C391.384 185.872 391.424 186.52 391.504 186.968C391.6 187.4 391.808 187.736 392.128 187.976C392.448 188.2 392.936 188.312 393.592 188.312C393.992 188.312 394.368 188.272 394.72 188.192C395.072 188.112 395.312 187.992 395.44 187.832C395.584 187.64 395.656 186.944 395.656 185.744V177.32H399.976ZM402.135 177.32H412.095V180.2H406.455V182.696H411.207V185.288H406.455V188.072H412.071V191H402.135V177.32ZM412.823 198.008C413.815 195.96 414.551 194.008 415.031 192.152C415.511 190.312 415.751 188.488 415.751 186.68C415.751 184.856 415.511 183 415.031 181.112C414.551 179.224 413.815 177.192 412.823 175.016L415.895 173.888C418.023 177.76 419.087 181.792 419.087 185.984C419.087 188.176 418.751 190.472 418.079 192.872C417.423 195.288 416.591 197.384 415.583 199.16L412.823 198.008ZM427.849 177.488H425.041V178.52C425.041 180.2 424.921 181.544 424.681 182.552C424.281 184.216 423.601 185.272 422.641 185.72V185.864C423.521 186.28 424.169 187.248 424.585 188.768C424.921 190.144 425.073 191.96 425.041 194.216H427.849V196.928C426.009 196.928 424.545 196.648 423.457 196.088C422.385 195.528 421.849 194.504 421.849 193.016C421.849 191.64 421.729 190.416 421.489 189.344C421.249 188.256 420.697 187.712 419.833 187.712C419.721 187.008 419.665 186.408 419.665 185.912C419.665 185.416 419.721 184.816 419.833 184.112C420.569 184.112 421.089 183.656 421.393 182.744C421.697 181.832 421.849 180.672 421.849 179.264C421.849 177.952 422.001 176.992 422.305 176.384C422.609 175.76 423.169 175.336 423.985 175.112C424.817 174.888 426.105 174.776 427.849 174.776V177.488ZM310.71 228.664C309.414 229.096 307.966 229.312 306.366 229.312C304.574 229.312 303.23 228.864 302.334 227.968C301.454 227.056 301.014 225.64 301.014 223.72C301.014 222.776 301.142 221.848 301.398 220.936C301.654 220.008 301.926 219.384 302.214 219.064C302.55 218.696 303.206 218.384 304.182 218.128C305.174 217.872 306.198 217.744 307.254 217.744C308.358 217.744 309.47 217.84 310.59 218.032C310.558 218.432 310.502 218.904 310.422 219.448C310.358 219.976 310.286 220.448 310.206 220.864C309.214 220.8 308.278 220.768 307.398 220.768C306.534 220.768 305.982 220.816 305.742 220.912C305.614 220.96 305.494 221.288 305.382 221.896C305.286 222.504 305.238 223.072 305.238 223.6C305.238 224.304 305.334 224.848 305.526 225.232C305.734 225.6 306.054 225.856 306.486 226C306.918 226.144 307.502 226.216 308.238 226.216C308.558 226.216 309.262 226.184 310.35 226.12L310.71 228.664ZM317.414 229.312C315.494 229.312 314.054 228.864 313.094 227.968C312.15 227.056 311.678 225.624 311.678 223.672C311.678 222.6 311.774 221.664 311.966 220.864C312.174 220.048 312.422 219.48 312.71 219.16C313.078 218.744 313.75 218.4 314.726 218.128C315.718 217.856 316.646 217.72 317.51 217.72C319.574 217.72 321.046 218.16 321.926 219.04C322.806 219.92 323.246 221.328 323.246 223.264C323.246 225.344 322.774 226.872 321.83 227.848C320.886 228.824 319.414 229.312 317.414 229.312ZM317.486 226.504C318.11 226.504 318.518 226.288 318.71 225.856C318.902 225.408 318.998 224.624 318.998 223.504C318.998 222.72 318.958 222.12 318.878 221.704C318.798 221.272 318.646 220.96 318.422 220.768C318.214 220.56 317.886 220.456 317.438 220.456C316.798 220.456 316.43 220.512 316.334 220.624C316.206 220.736 316.102 221.088 316.022 221.68C315.942 222.272 315.902 222.888 315.902 223.528C315.902 224.616 316.006 225.384 316.214 225.832C316.438 226.28 316.862 226.504 317.486 226.504ZM335.852 217.96V229H332.516L332.06 227.152C330.908 228.544 329.532 229.24 327.932 229.24C327.356 229.24 326.812 229.16 326.3 229C325.804 228.84 325.428 228.608 325.172 228.304C325.028 228.128 324.916 227.688 324.836 226.984C324.772 226.28 324.74 225.208 324.74 223.768V217.96H328.844V223.72C328.844 224.04 328.852 224.416 328.868 224.848C328.884 225.28 328.932 225.552 329.012 225.664C329.124 225.824 329.444 225.904 329.972 225.904L330.356 225.88C330.804 225.864 331.268 225.76 331.748 225.568V217.96H335.852ZM342.908 224.464C342.908 224.752 342.916 225.056 342.932 225.376C342.948 225.68 342.996 225.872 343.076 225.952C343.188 226.064 343.58 226.12 344.252 226.12L345.068 226.096C345.212 226.864 345.284 227.752 345.284 228.76C344.98 228.872 344.532 228.976 343.94 229.072C343.364 229.168 342.812 229.216 342.284 229.216C341.18 229.216 340.324 228.976 339.716 228.496C339.124 228 338.828 227.24 338.828 226.216V220.312H337.028V218.128L338.828 217.96L339.908 215.32L342.908 215.152V217.96H345.452V220.312H342.908V224.464ZM349.881 221.824L357.249 216.976V220.288L352.929 222.976L357.249 225.784V229.12L349.881 224.152V221.824ZM358.787 221.824L366.155 216.976V220.288L361.835 222.976L366.155 225.784V229.12L358.787 224.152V221.824ZM374.855 214.888C374.471 216.072 374.263 217.776 374.231 220C374.119 220.016 373.943 220.024 373.703 220.024C373.287 220.024 372.879 219.968 372.479 219.856C372.079 219.744 371.735 219.576 371.447 219.352C371.527 218.552 371.687 217.664 371.927 216.688C372.167 215.712 372.511 214.952 372.959 214.408C373.263 214.392 373.591 214.432 373.943 214.528C374.311 214.624 374.615 214.744 374.855 214.888ZM378.575 214.888C378.191 216.072 377.983 217.776 377.951 220C377.839 220.016 377.663 220.024 377.423 220.024C377.007 220.024 376.599 219.968 376.199 219.856C375.799 219.744 375.455 219.576 375.167 219.352C375.247 218.552 375.407 217.664 375.647 216.688C375.887 215.712 376.231 214.952 376.679 214.408C376.983 214.392 377.311 214.432 377.663 214.528C378.031 214.624 378.335 214.744 378.575 214.888ZM380.037 215.32H384.357V229H380.037V215.32ZM397.25 218.656C397.394 218.832 397.498 219.272 397.562 219.976C397.642 220.68 397.682 221.752 397.682 223.192V229H393.578V223.24V222.256C393.578 221.744 393.538 221.424 393.458 221.296C393.33 221.136 393.034 221.056 392.57 221.056C392.346 221.056 392.178 221.064 392.066 221.08C391.618 221.096 391.154 221.2 390.674 221.392V229H386.57V217.96H389.906L390.362 219.808C391.514 218.416 392.89 217.72 394.49 217.72C395.066 217.72 395.602 217.8 396.098 217.96C396.61 218.12 396.994 218.352 397.25 218.656ZM401.714 216.592C401.17 216.592 400.698 216.408 400.298 216.04C399.914 215.672 399.722 215.232 399.722 214.72C399.722 214.208 399.914 213.768 400.298 213.4C400.698 213.032 401.17 212.848 401.714 212.848C402.258 212.848 402.722 213.032 403.106 213.4C403.49 213.768 403.682 214.208 403.682 214.72C403.682 215.232 403.49 215.672 403.106 216.04C402.722 216.408 402.258 216.592 401.714 216.592ZM399.65 217.96H403.754V229H399.65V217.96ZM416.589 216.592C416.045 216.592 415.573 216.408 415.173 216.04C414.789 215.672 414.597 215.232 414.597 214.72C414.597 214.208 414.789 213.768 415.173 213.4C415.573 213.032 416.045 212.848 416.589 212.848C417.133 212.848 417.597 213.032 417.981 213.4C418.365 213.768 418.557 214.208 418.557 214.72C418.557 215.232 418.365 215.672 417.981 216.04C417.597 216.408 417.133 216.592 416.589 216.592ZM418.629 229H414.525V220.312H410.853V229H406.749V220.312H404.949V218.176L406.749 217.96V217.6C406.749 216.896 406.845 216.224 407.037 215.584C407.229 214.944 407.405 214.56 407.565 214.432C408.061 214.016 409.117 213.808 410.733 213.808C411.613 213.808 412.597 213.872 413.685 214C413.685 214.192 413.653 214.576 413.589 215.152C413.541 215.728 413.493 216.216 413.445 216.616L412.413 216.592C411.565 216.592 411.101 216.632 411.021 216.712C410.909 216.824 410.853 217.168 410.853 217.744V217.96H418.629V229ZM431.352 218.656C431.496 218.832 431.6 219.272 431.664 219.976C431.744 220.68 431.784 221.752 431.784 223.192V229H427.68V223.24V222.256C427.68 221.744 427.64 221.424 427.56 221.296C427.432 221.136 427.136 221.056 426.672 221.056C426.448 221.056 426.28 221.064 426.168 221.08C425.72 221.096 425.256 221.2 424.776 221.392V229H420.672V217.96H424.008L424.464 219.808C425.616 218.416 426.992 217.72 428.592 217.72C429.168 217.72 429.704 217.8 430.2 217.96C430.712 218.12 431.096 218.352 431.352 218.656ZM435.815 216.592C435.271 216.592 434.799 216.408 434.399 216.04C434.015 215.672 433.823 215.232 433.823 214.72C433.823 214.208 434.015 213.768 434.399 213.4C434.799 213.032 435.271 212.848 435.815 212.848C436.359 212.848 436.823 213.032 437.207 213.4C437.591 213.768 437.783 214.208 437.783 214.72C437.783 215.232 437.591 215.672 437.207 216.04C436.823 216.408 436.359 216.592 435.815 216.592ZM433.751 217.96H437.855V229H433.751V217.96ZM444.978 224.464C444.978 224.752 444.986 225.056 445.002 225.376C445.018 225.68 445.066 225.872 445.146 225.952C445.258 226.064 445.65 226.12 446.322 226.12L447.138 226.096C447.282 226.864 447.354 227.752 447.354 228.76C447.05 228.872 446.602 228.976 446.01 229.072C445.434 229.168 444.882 229.216 444.354 229.216C443.25 229.216 442.394 228.976 441.786 228.496C441.194 228 440.898 227.24 440.898 226.216V220.312H439.098V218.128L440.898 217.96L441.978 215.32L444.978 215.152V217.96H447.522V220.312H444.978V224.464ZM455.446 226.12C455.846 226.12 456.59 226.08 457.678 226C457.822 226 458.086 225.984 458.47 225.952L458.83 228.424C457.598 229 455.998 229.288 454.03 229.288C452.19 229.288 450.774 228.824 449.782 227.896C448.806 226.968 448.318 225.568 448.318 223.696C448.318 222.736 448.438 221.808 448.678 220.912C448.934 220.016 449.222 219.392 449.542 219.04C449.878 218.688 450.502 218.384 451.414 218.128C452.326 217.872 453.23 217.744 454.126 217.744C455.566 217.744 456.646 218 457.366 218.512C458.086 219.024 458.558 219.736 458.782 220.648C459.006 221.544 459.118 222.752 459.118 224.272C458.03 224.336 456.966 224.368 455.926 224.368H452.518C452.518 224.88 452.622 225.264 452.83 225.52C453.054 225.776 453.366 225.944 453.766 226.024C454.166 226.088 454.726 226.12 455.446 226.12ZM452.758 220.6C452.662 220.648 452.59 220.856 452.542 221.224C452.494 221.592 452.462 222.008 452.446 222.472H453.694C454.446 222.472 454.99 222.464 455.326 222.448C455.326 221.68 455.214 221.136 454.99 220.816C454.782 220.496 454.414 220.336 453.886 220.336C453.454 220.336 453.078 220.424 452.758 220.6ZM464.244 214.6L468.348 214.432V229H464.244V214.6ZM475.71 229.312C473.79 229.312 472.35 228.864 471.39 227.968C470.446 227.056 469.974 225.624 469.974 223.672C469.974 222.6 470.07 221.664 470.262 220.864C470.47 220.048 470.718 219.48 471.006 219.16C471.374 218.744 472.046 218.4 473.022 218.128C474.014 217.856 474.942 217.72 475.806 217.72C477.87 217.72 479.342 218.16 480.222 219.04C481.102 219.92 481.542 221.328 481.542 223.264C481.542 225.344 481.07 226.872 480.126 227.848C479.182 228.824 477.71 229.312 475.71 229.312ZM475.782 226.504C476.406 226.504 476.814 226.288 477.006 225.856C477.198 225.408 477.294 224.624 477.294 223.504C477.294 222.72 477.254 222.12 477.174 221.704C477.094 221.272 476.942 220.96 476.718 220.768C476.51 220.56 476.182 220.456 475.734 220.456C475.094 220.456 474.726 220.512 474.63 220.624C474.502 220.736 474.398 221.088 474.318 221.68C474.238 222.272 474.198 222.888 474.198 223.528C474.198 224.616 474.302 225.384 474.51 225.832C474.734 226.28 475.158 226.504 475.782 226.504ZM488.437 229.312C486.517 229.312 485.077 228.864 484.117 227.968C483.173 227.056 482.701 225.624 482.701 223.672C482.701 222.6 482.797 221.664 482.989 220.864C483.197 220.048 483.445 219.48 483.733 219.16C484.101 218.744 484.773 218.4 485.749 218.128C486.741 217.856 487.669 217.72 488.533 217.72C490.597 217.72 492.069 218.16 492.949 219.04C493.829 219.92 494.269 221.328 494.269 223.264C494.269 225.344 493.797 226.872 492.853 227.848C491.909 228.824 490.437 229.312 488.437 229.312ZM488.509 226.504C489.133 226.504 489.541 226.288 489.733 225.856C489.925 225.408 490.021 224.624 490.021 223.504C490.021 222.72 489.981 222.12 489.901 221.704C489.821 221.272 489.669 220.96 489.445 220.768C489.237 220.56 488.909 220.456 488.461 220.456C487.821 220.456 487.453 220.512 487.357 220.624C487.229 220.736 487.125 221.088 487.045 221.68C486.965 222.272 486.925 222.888 486.925 223.528C486.925 224.616 487.029 225.384 487.237 225.832C487.461 226.28 487.885 226.504 488.509 226.504ZM503.42 217.72C504.572 217.72 505.484 218.104 506.156 218.872C506.844 219.624 507.188 220.944 507.188 222.832C507.188 224.24 507.052 225.392 506.78 226.288C506.508 227.168 506.196 227.752 505.844 228.04C505.492 228.328 504.876 228.56 503.996 228.736C503.132 228.912 502.236 229 501.308 229C501.036 229 500.58 228.984 499.94 228.952V232.36L495.836 232.528V217.96H499.196L499.604 219.664C500.02 219.072 500.548 218.6 501.188 218.248C501.844 217.896 502.588 217.72 503.42 217.72ZM502.46 226.072C502.636 225.944 502.764 225.584 502.844 224.992C502.924 224.384 502.964 223.808 502.964 223.264C502.964 222.368 502.852 221.704 502.628 221.272C502.404 220.84 501.956 220.624 501.284 220.624C500.804 220.624 500.356 220.672 499.94 220.768V226.096L500.612 226.168C500.82 226.184 501.116 226.192 501.5 226.192C502.044 226.192 502.364 226.152 502.46 226.072ZM508.053 219.592C508.437 218.408 508.645 216.704 508.677 214.48C508.789 214.464 508.965 214.456 509.205 214.456C509.621 214.456 510.029 214.512 510.429 214.624C510.829 214.736 511.173 214.904 511.461 215.128C511.381 215.928 511.22 216.816 510.98 217.792C510.741 218.768 510.397 219.528 509.949 220.072C509.645 220.088 509.309 220.048 508.941 219.952C508.589 219.856 508.293 219.736 508.053 219.592ZM511.773 219.592C512.157 218.408 512.365 216.704 512.397 214.48C512.509 214.464 512.685 214.456 512.925 214.456C513.341 214.456 513.749 214.512 514.148 214.624C514.549 214.736 514.893 214.904 515.181 215.128C515.101 215.928 514.941 216.816 514.701 217.792C514.461 218.768 514.117 219.528 513.669 220.072C513.365 220.088 513.029 220.048 512.661 219.952C512.309 219.856 512.013 219.736 511.773 219.592ZM519.042 220.96C518.45 220.96 517.954 220.76 517.554 220.36C517.17 219.96 516.978 219.464 516.978 218.872C516.978 218.216 517.17 217.696 517.554 217.312C517.938 216.912 518.45 216.712 519.09 216.712C519.698 216.712 520.194 216.912 520.578 217.312C520.962 217.696 521.154 218.216 521.154 218.872C521.154 219.464 520.954 219.96 520.554 220.36C520.154 220.76 519.65 220.96 519.042 220.96ZM519.426 222.904C520.05 222.904 520.594 223.136 521.058 223.6C521.538 224.048 521.778 224.672 521.778 225.472C521.778 226.24 521.514 227.04 520.986 227.872C520.474 228.688 519.85 229.464 519.114 230.2L517.65 228.952C518.194 228.2 518.658 227.472 519.042 226.768C518.21 226.528 517.578 226.264 517.146 225.976C517.114 225.832 517.098 225.624 517.098 225.352C517.098 224.648 517.298 224.064 517.698 223.6C518.114 223.136 518.69 222.904 519.426 222.904ZM294.568 260.112C294.68 260.672 294.736 261.272 294.736 261.912C294.736 262.552 294.68 263.152 294.568 263.712C293.704 263.712 293.152 264.256 292.912 265.344C292.672 266.416 292.552 267.64 292.552 269.016C292.552 270.504 292.008 271.528 290.92 272.088C289.848 272.648 288.392 272.928 286.552 272.928V270.216H289.36C289.328 267.96 289.48 266.144 289.816 264.768C290.232 263.248 290.88 262.28 291.76 261.864V261.72C290.8 261.272 290.12 260.216 289.72 258.552C289.48 257.544 289.36 256.2 289.36 254.52V253.488H286.552V250.776C288.296 250.776 289.576 250.888 290.392 251.112C291.224 251.336 291.792 251.76 292.096 252.384C292.4 252.992 292.552 253.952 292.552 255.264C292.552 256.672 292.704 257.832 293.008 258.744C293.312 259.656 293.832 260.112 294.568 260.112Z" fill="#36A900"/>
<path d="M338.208 599.5C339.408 597.1 340.375 589.833 340.708 586.5L372.708 584C373.041 591.833 373.508 608 372.708 610C371.708 612.5 351.208 611.5 345.708 611.5C341.308 611.5 337.766 611 335.6 610.5C335.267 610 334.3 607.6 335.1 606C336.1 604 336.708 602.5 338.208 599.5Z" fill="#986526" stroke="black" stroke-width="2"/>
<path d="M334.204 617C333.829 616.234 333.976 610.074 334.6 608H373.1L373.1 614.745C373.1 617.138 371.228 617.617 369.357 618.574C367.485 619.532 345.494 618.574 343.622 618.574C341.751 618.574 334.672 617.957 334.204 617Z" fill="#D9D9D9" stroke="black" stroke-width="2"/>
<path d="M335.869 538.4C336.222 551.424 338.669 577.56 339.847 589H374.6C374.6 578.293 372.563 554.768 372.563 546.32C372.563 537.872 374.921 497.92 376.1 479H334.1C334.542 493.373 335.515 525.376 335.869 538.4Z" fill="#1B3C9C" stroke="black"/>
<path d="M437.892 599.5C436.692 597.1 435.725 589.833 435.392 586.5L403.392 584C403.059 591.833 402.592 608 403.392 610C404.392 612.5 424.892 611.5 430.392 611.5C434.792 611.5 438.334 611 440.5 610.5C440.834 610 441.8 607.6 441 606C440 604 439.392 602.5 437.892 599.5Z" fill="#986526" stroke="black" stroke-width="2"/>
<path d="M441.896 617C442.271 616.234 442.124 610.074 441.5 608H403L403 614.745C403 617.138 404.872 617.617 406.743 618.574C408.615 619.532 430.606 618.574 432.478 618.574C434.349 618.574 441.428 617.957 441.896 617Z" fill="#D9D9D9" stroke="black" stroke-width="2"/>
<path d="M440.232 538.4C439.878 551.424 437.432 577.56 436.253 589H401.5C401.5 578.293 403.537 554.768 403.537 546.32C403.537 537.872 401.179 497.92 400 479H442C441.558 493.373 440.585 525.376 440.232 538.4Z" fill="#1B3C9C" stroke="black"/>
<path d="M369 292.013C370.2 285.613 368.5 279.013 367.5 276.513L408.5 275.013C407.667 278.679 406.2 287.213 407 292.013C407.8 296.813 411.333 308.013 413 313.013H364C365.167 308.679 367.8 298.413 369 292.013Z" fill="#DCB142" stroke="black"/>
<path d="M342 226.013C344 224.013 347.167 226.846 348.5 228.513L356.5 253.013C355.333 253.513 352.6 254.613 351 255.013C349 255.513 343 250.513 339.5 243.513C336 236.513 339.5 228.513 342 226.013Z" fill="#DCB142" stroke="black"/>
<path d="M436.5 223.201C434.5 221.201 431.333 224.034 430 225.701L422 250.201C423.167 250.701 425.9 251.801 427.5 252.201C429.5 252.701 435.5 247.701 439 240.701C442.5 233.701 439 225.701 436.5 223.201Z" fill="#DCB142" stroke="black"/>
<path d="M338 323C344.4 314.6 367 310 377 310C377 310 397 309.5 404 310L404.203 310.015C411.194 310.514 421.181 311.227 429.5 314C440 317.5 440 318 446 328C450.8 336 462.333 381.513 468 403.013C466.667 403.513 462.8 404.913 458 406.513C453.2 408.113 447.333 408.513 445 408.513L439 360.013C440.167 375.513 443 410.013 445 424.013C447 438.013 445.833 483.846 445 505.013C434 503.679 406.3 501.113 383.5 501.513C360.7 501.913 346.333 503.346 342 504.013C340.667 490.679 338 460.213 338 445.013V408.513H314C315.667 398.013 319.5 375.513 321.5 369.513C324 362.013 330 333.5 338 323Z" fill="#1D3AA0" stroke="black"/>
<path d="M369.5 282.513C373.1 285.313 383 284.513 388 284.513C392 284.513 401.6 284.513 408 282.513C416 280.013 422.5 256.513 424.5 250.013C426.5 243.513 438.5 196.513 437 187.013C435.8 179.413 428.167 174.179 424.5 172.513C428.333 172.013 435.7 170.813 434.5 170.013C433.3 169.213 427.333 169.679 424.5 170.013C426 167.346 428.9 161.813 428.5 161.013C428.1 160.213 423 164.346 420.5 166.513C418.5 162.179 414.3 153.513 413.5 153.513C412.7 153.513 413.167 157.513 413.5 159.513C409.167 154.846 400.4 145.613 400 146.013C399.6 146.413 402.833 154.179 404.5 158.013C401.667 155.846 395.6 151.413 394 151.013C392 150.513 376 146.513 377.5 147.013C378.7 147.413 382 151.513 383.5 153.513C379.5 153.013 371.7 152.113 372.5 152.513C373.3 152.913 374.167 156.346 374.5 158.013C373.667 157.679 370.5 157.013 364.5 157.013C358.5 157.013 354.333 158.679 353 159.513L364.5 162.013C358.833 165.179 346.7 172.313 343.5 175.513C340.3 178.713 335.167 187.846 333 192.013L340.5 187.013C341.5 195.513 344.3 216.213 347.5 231.013C351.5 249.513 365 279.013 369.5 282.513Z" fill="#533200" stroke="black"/>
<rect x="188" y="372" width="416" height="107" fill="#ADADAD"/>
<rect x="155" y="365" width="472" height="16" fill="#986526"/>
<rect x="171" y="381" width="22" height="222" fill="#404040"/>
<rect x="594" y="380" width="22" height="222" fill="#404040"/>
<path d="M380.381 676C376.742 676 374.461 673.076 373.214 669.846C373.214 667.538 375.81 663.692 380.381 663.692C385.714 663.692 388 668.308 388 669.846C388 672.154 385.714 676 380.381 676Z" fill="#404040"/>
<path d="M372 656V663.692C372 667.795 374.286 676 380.381 676C385.714 676 388 672.154 388 669.846C388 668.308 385.714 663.692 380.381 663.692C375.81 663.692 373.214 667.538 373.214 669.846" stroke="black"/>
<path d="M337.333 663C334.15 663 332.154 660.368 331.062 657.462C331.062 655.385 333.333 651.923 337.333 651.923C342 651.923 344 656.077 344 657.462C344 659.538 342 663 337.333 663Z" fill="#404040"/>
<path d="M330 645V651.923C330 655.615 332 663 337.333 663C342 663 344 659.538 344 657.462C344 656.077 342 651.923 337.333 651.923C333.333 651.923 331.062 655.385 331.062 657.462" stroke="black"/>
<path d="M436.381 666C432.742 666 430.461 663.076 429.214 659.846C429.214 657.538 431.81 653.692 436.381 653.692C441.714 653.692 444 658.308 444 659.846C444 662.154 441.714 666 436.381 666Z" fill="#404040"/>
<path d="M428 646V653.692C428 657.795 430.286 666 436.381 666C441.714 666 444 662.154 444 659.846C444 658.308 441.714 653.692 436.381 653.692C431.81 653.692 429.214 657.538 429.214 659.846" stroke="black"/>
<path d="M381 617.5L384 551H391.5L393.5 617.5L442 647C440.5 650.833 404 657.5 384 657.5C364 657.5 327.667 647.333 326.5 643.5L381 617.5Z" fill="black" stroke="black"/>
<path d="M389 333.5C361 332.5 315 339.5 311.5 345L326.5 549.5C329 552 351.5 556 389 555.5C426.5 555 448.5 553 452 551C455.5 549 471.5 354.5 466 345C460.5 335.5 417 334.5 389 333.5Z" fill="#F4D766" stroke="black" stroke-width="2"/>
</svg>
