<svg width="480" height="214" viewBox="0 0 480 214" fill="none" xmlns="http://www.w3.org/2000/svg">
<path d="M13.9227 70.4013C11.9142 67.098 7.60816 66.0484 4.30486 68.0569C1.00156 70.0654 -0.0480691 74.3715 1.96044 77.6748L13.9227 70.4013ZM477.494 7.71936C477.362 3.85562 474.122 0.830588 470.259 0.96275L407.295 3.11646C403.432 3.24862 400.407 6.48794 400.539 10.3517C400.671 14.2154 403.91 17.2404 407.774 17.1083L463.741 15.1939L465.656 71.1611C465.788 75.0249 469.027 78.0499 472.891 77.9177C476.755 77.7856 479.78 74.5463 479.647 70.6825L477.494 7.71936ZM1.96044 77.6748C34.7266 131.564 67.8686 168.777 102.757 190.416C137.9 212.213 174.463 217.979 213.204 209.589C251.652 201.262 291.906 179.077 335.033 145.688C378.208 112.262 424.698 67.2583 475.614 12.7363L465.382 3.18102C414.672 57.4832 368.771 101.862 326.462 134.618C284.106 167.411 245.785 188.208 210.241 195.906C174.991 203.54 142.144 198.372 110.136 178.519C77.8722 158.507 46.1196 123.354 13.9227 70.4013L1.96044 77.6748Z" fill="#1D3AA0"/>
</svg>
