<svg width="1279" height="921" viewBox="0 0 1279 921" fill="none" xmlns="http://www.w3.org/2000/svg">
<path d="M41.5493 117.787C40.4694 111.341 40.6622 106.512 42.1276 103.3C43.6305 100.081 46.3307 98.1455 50.2284 97.4925C54.1636 96.8333 57.3473 97.7833 59.7796 100.343C62.2494 102.896 64.0242 107.395 65.1041 113.841C66.1777 120.25 65.9693 125.101 64.479 128.395C62.9824 131.651 60.2852 133.605 56.3875 134.258C52.4899 134.911 49.303 133.942 46.827 131.352C44.3821 128.718 42.6229 124.196 41.5493 117.787ZM55.5305 129.142C57.5918 128.797 58.9152 127.612 59.5008 125.588C60.1238 123.557 60.0052 119.974 59.1451 114.84C58.2787 109.668 57.2263 106.261 55.988 104.619C54.7872 102.971 53.1561 102.319 51.0948 102.664C49.0336 103.01 47.7226 104.154 47.162 106.097C46.5951 108.003 46.6789 111.149 47.4135 115.534C48.1418 119.881 48.8784 123.013 49.6235 124.931C50.3997 126.804 51.2409 128.031 52.1473 128.611C53.0536 129.191 54.1813 129.369 55.5305 129.142Z" fill="#DFBF43"/>
<path d="M261.409 162.284C262.899 155.216 265.046 150.324 267.85 147.61C270.695 144.905 274.255 144.003 278.529 144.904C282.844 145.814 285.737 148.076 287.207 151.691C288.718 155.314 288.728 160.661 287.238 167.729C285.757 174.757 283.585 179.664 280.722 182.452C277.868 185.198 274.304 186.121 270.03 185.22C265.756 184.319 262.868 182.036 261.366 178.371C259.913 174.674 259.927 169.312 261.409 162.284ZM271.213 179.61C273.473 180.087 275.313 179.401 276.732 177.554C278.193 175.716 279.517 171.982 280.704 166.352C281.899 160.68 282.191 156.75 281.58 154.561C281.009 152.38 279.594 151.052 277.334 150.575C275.073 150.099 273.262 150.747 271.901 152.521C270.549 154.253 269.366 157.523 268.352 162.331C267.347 167.099 266.841 170.619 266.834 172.892C266.877 175.133 267.247 176.735 267.946 177.698C268.644 178.661 269.733 179.298 271.213 179.61Z" fill="#DFBF43"/>
<path d="M386.294 188.032C390.334 180.441 394.407 175.557 398.511 173.38C402.659 171.226 407.028 171.371 411.619 173.814C416.253 176.281 418.813 179.824 419.3 184.445C419.83 189.088 418.075 195.206 414.034 202.797C410.017 210.345 405.911 215.24 401.715 217.481C397.544 219.679 393.163 219.556 388.572 217.113C383.982 214.67 381.434 211.104 380.927 206.416C380.488 201.708 382.277 195.58 386.294 188.032ZM391.779 211.088C394.207 212.38 396.537 212.205 398.771 210.562C401.049 208.942 403.798 205.109 407.016 199.062C410.258 192.971 411.891 188.573 411.915 185.867C411.984 183.184 410.804 181.197 408.377 179.905C405.949 178.613 403.664 178.756 401.521 180.334C399.402 181.869 396.968 185.218 394.219 190.382C391.494 195.502 389.752 199.36 388.992 201.958C388.3 204.535 388.194 206.49 388.675 207.822C389.156 209.154 390.19 210.242 391.779 211.088Z" fill="#5B5B5B" fill-opacity="0.62"/>
<path d="M199.922 158.707C206.074 156.498 210.86 155.83 214.282 156.701C217.716 157.608 220.101 159.921 221.436 163.641C222.784 167.396 222.415 170.698 220.329 173.547C218.255 176.431 214.143 178.977 207.991 181.185C201.875 183.381 197.064 184.038 193.559 183.156C190.088 182.262 187.686 179.955 186.35 176.236C185.015 172.516 185.402 169.208 187.511 166.311C189.669 163.437 193.806 160.902 199.922 158.707ZM191.232 174.483C191.939 176.45 193.34 177.542 195.436 177.759C197.545 178.011 201.05 177.257 205.95 175.499C210.885 173.727 214.051 172.086 215.447 170.575C216.856 169.101 217.207 167.38 216.501 165.413C215.795 163.446 214.435 162.359 212.423 162.153C210.447 161.933 207.367 162.575 203.182 164.077C199.033 165.566 196.082 166.848 194.327 167.922C192.622 169.019 191.564 170.064 191.154 171.059C190.744 172.054 190.77 173.196 191.232 174.483Z" fill="#DFBF43"/>
<path d="M169.326 106.959C168.246 100.513 168.439 95.6834 169.904 92.4711C171.407 89.2526 174.107 87.3168 178.005 86.6639C181.94 86.0046 185.124 86.9547 187.556 89.514C190.026 92.067 191.801 96.5666 192.881 103.013C193.954 109.421 193.746 114.273 192.256 117.566C190.759 120.822 188.062 122.777 184.164 123.43C180.266 124.082 177.08 123.114 174.604 120.523C172.159 117.889 170.4 113.367 169.326 106.959ZM183.307 118.314C185.368 117.969 186.692 116.784 187.277 114.759C187.9 112.728 187.782 109.146 186.922 104.011C186.055 98.8391 185.003 95.4322 183.765 93.7902C182.564 92.1419 180.933 91.4905 178.871 91.8358C176.81 92.1811 175.499 93.3254 174.939 95.2688C174.372 97.1746 174.456 100.32 175.19 104.705C175.918 109.052 176.655 112.185 177.4 114.102C178.176 115.975 179.018 117.202 179.924 117.783C180.83 118.363 181.958 118.54 183.307 118.314Z" fill="#5B5B5B" fill-opacity="0.62"/>
<path d="M152.562 152.713L131.4 143.489L133.495 138.682L142.117 142.44L152.017 119.583L142.324 119.71L142.356 114.501L155.163 114.363L159.343 116.185L146.976 144.558L154.658 147.906L152.562 152.713Z" fill="black" fill-opacity="0.54"/>
<path d="M108.345 114.828L85.9791 109.11L87.2779 104.03L96.3899 106.359L102.504 82.2122L92.956 83.8896L92.1538 78.7426L104.774 76.556L109.191 77.6854L101.526 107.672L109.644 109.747L108.345 114.828Z" fill="#5B5B5B" fill-opacity="0.62"/>
<path d="M326.685 239.309L307.367 251.947L304.496 247.559L312.367 242.41L298.682 221.597L293.473 229.772L289.135 226.889L296.042 216.104L299.858 213.607L316.803 239.508L323.814 234.921L326.685 239.309Z" fill="#DFBF43"/>
<path d="M354.012 162.841L334.729 144.92L338.8 140.539L346.656 147.841L365.945 126.989L355.468 123.464L357.471 117.871L371.302 122.562L375.111 126.102L351.084 151.956L358.083 158.46L354.012 162.841Z" fill="black" fill-opacity="0.54"/>
<path d="M739.338 349.886L755.166 370.921L750.388 374.516L743.939 365.947L721.282 383.078L730.975 388.392L728.019 393.545L715.229 386.494L712.102 382.339L740.304 361.116L734.559 353.482L739.338 349.886Z" fill="black" fill-opacity="0.54"/>
<path d="M240.061 153.024L217.695 147.307L218.994 142.226L228.106 144.556L234.22 120.409L224.672 122.086L223.87 116.939L236.49 114.752L240.908 115.882L233.242 145.869L241.36 147.944L240.061 153.024Z" fill="#5B5B5B" fill-opacity="0.62"/>
<path d="M449.608 268.1C448.528 261.654 448.721 256.824 450.187 253.612C451.69 250.394 454.39 248.458 458.288 247.805C462.223 247.146 465.406 248.096 467.839 250.655C470.308 253.208 472.083 257.708 473.163 264.154C474.237 270.563 474.028 275.414 472.538 278.707C471.041 281.963 468.344 283.918 464.447 284.571C460.549 285.224 457.362 284.255 454.886 281.664C452.441 279.03 450.682 274.508 449.608 268.1ZM463.59 279.455C465.651 279.11 466.974 277.925 467.56 275.9C468.183 273.869 468.064 270.287 467.204 265.152C466.338 259.98 465.285 256.573 464.047 254.931C462.846 253.283 461.215 252.631 459.154 252.977C457.093 253.322 455.782 254.466 455.221 256.41C454.654 258.316 454.738 261.461 455.473 265.846C456.201 270.193 456.938 273.326 457.683 275.243C458.459 277.116 459.3 278.343 460.206 278.924C461.113 279.504 462.24 279.681 463.59 279.455Z" fill="#DFBF43"/>
<path d="M737.249 290.327C741.29 282.735 745.362 277.851 749.466 275.674C753.615 273.52 757.984 273.665 762.574 276.109C767.209 278.575 769.769 282.119 770.255 286.739C770.786 291.383 769.03 297.5 764.99 305.092C760.972 312.639 756.866 317.534 752.671 319.776C748.499 321.973 744.118 321.85 739.528 319.407C734.938 316.964 732.389 313.398 731.882 308.711C731.443 304.002 733.232 297.874 737.249 290.327ZM742.735 313.382C745.162 314.675 747.493 314.499 749.727 312.856C752.005 311.236 754.753 307.403 757.972 301.357C761.214 295.266 762.847 290.867 762.871 288.161C762.939 285.479 761.76 283.492 759.332 282.199C756.905 280.907 754.62 281.05 752.477 282.629C750.357 284.163 747.923 287.512 745.175 292.676C742.45 297.796 740.707 301.655 739.948 304.252C739.256 306.829 739.15 308.784 739.631 310.116C740.111 311.448 741.146 312.537 742.735 313.382Z" fill="#5B5B5B" fill-opacity="0.62"/>
<path d="M702.589 318.731L683.271 331.37L680.4 326.981L688.27 321.832L674.586 301.019L669.377 309.195L665.038 306.312L671.946 295.526L675.762 293.03L692.706 318.93L699.718 314.343L702.589 318.731Z" fill="#DFBF43"/>
<path d="M779.484 345.573C778.404 339.127 778.597 334.298 780.062 331.086C781.565 327.867 784.266 325.931 788.163 325.278C792.098 324.619 795.282 325.569 797.714 328.128C800.184 330.681 801.959 335.181 803.039 341.627C804.112 348.036 803.904 352.887 802.414 356.181C800.917 359.437 798.22 361.391 794.322 362.044C790.425 362.697 787.238 361.728 784.762 359.138C782.317 356.503 780.558 351.982 779.484 345.573ZM793.465 356.928C795.527 356.583 796.85 355.398 797.436 353.373C798.059 351.343 797.94 347.76 797.08 342.625C796.213 337.454 795.161 334.047 793.923 332.405C792.722 330.756 791.091 330.105 789.03 330.45C786.968 330.796 785.657 331.94 785.097 333.883C784.53 335.789 784.614 338.934 785.348 343.319C786.077 347.667 786.813 350.799 787.558 352.716C788.334 354.59 789.176 355.817 790.082 356.397C790.988 356.977 792.116 357.154 793.465 356.928Z" fill="#DFBF43"/>
<path d="M606.051 322.525C607.541 315.457 609.689 310.566 612.493 307.852C615.338 305.146 618.898 304.244 623.172 305.145C627.487 306.055 630.379 308.317 631.849 311.932C633.36 315.556 633.371 320.902 631.881 327.97C630.399 334.998 628.227 339.906 625.365 342.693C622.511 345.439 618.947 346.362 614.673 345.461C610.399 344.56 607.51 342.277 606.008 338.613C604.555 334.915 604.57 329.553 606.051 322.525ZM615.855 339.851C618.116 340.328 619.956 339.643 621.375 337.796C622.836 335.958 624.159 332.223 625.346 326.593C626.542 320.922 626.834 316.991 626.222 314.802C625.652 312.622 624.236 311.293 621.976 310.817C619.716 310.34 617.905 310.988 616.544 312.762C615.192 314.494 614.009 317.764 612.995 322.573C611.99 327.34 611.484 330.86 611.477 333.134C611.519 335.375 611.89 336.977 612.588 337.939C613.287 338.902 614.376 339.539 615.855 339.851Z" fill="#DFBF43"/>
<path d="M550.103 259.786C556.255 257.578 561.041 256.91 564.463 257.781C567.897 258.688 570.282 261.001 571.617 264.721C572.965 268.476 572.596 271.778 570.51 274.626C568.436 277.51 564.324 280.057 558.172 282.265C552.056 284.46 547.245 285.117 543.739 284.236C540.269 283.342 537.867 281.035 536.531 277.316C535.196 273.596 535.583 270.288 537.692 267.391C539.85 264.517 543.987 261.982 550.103 259.786ZM541.413 275.563C542.119 277.53 543.521 278.622 545.617 278.838C547.726 279.091 551.231 278.337 556.131 276.578C561.066 274.807 564.232 273.165 565.628 271.655C567.036 270.18 567.388 268.46 566.682 266.492C565.975 264.525 564.616 263.439 562.604 263.232C560.628 263.013 557.548 263.655 553.363 265.157C549.214 266.646 546.263 267.928 544.508 269.001C542.803 270.098 541.745 271.144 541.335 272.139C540.925 273.134 540.951 274.276 541.413 275.563Z" fill="#DFBF43"/>
<path d="M554.442 227.26C553.362 220.813 553.555 215.984 555.02 212.772C556.523 209.553 559.224 207.618 563.121 206.965C567.056 206.305 570.24 207.256 572.672 209.815C575.142 212.368 576.917 216.867 577.997 223.314C579.07 229.722 578.862 234.573 577.372 237.867C575.875 241.123 573.178 243.077 569.28 243.73C565.383 244.383 562.196 243.415 559.72 240.824C557.275 238.19 555.516 233.668 554.442 227.26ZM568.423 238.615C570.485 238.269 571.808 237.084 572.394 235.06C573.017 233.029 572.898 229.446 572.038 224.312C571.171 219.14 570.119 215.733 568.881 214.091C567.68 212.443 566.049 211.791 563.988 212.137C561.926 212.482 560.615 213.626 560.055 215.57C559.488 217.475 559.572 220.621 560.306 225.006C561.035 229.353 561.771 232.485 562.516 234.403C563.292 236.276 564.134 237.503 565.04 238.083C565.946 238.664 567.074 238.841 568.423 238.615Z" fill="#5B5B5B" fill-opacity="0.62"/>
<path d="M516.004 231.654L494.842 222.43L496.937 217.623L505.558 221.381L515.459 198.524L505.765 198.651L505.797 193.442L518.604 193.304L522.785 195.126L510.418 223.499L518.099 226.847L516.004 231.654Z" fill="black" fill-opacity="0.54"/>
<path d="M453.95 195.538L431.585 189.821L432.883 184.74L441.995 187.07L448.109 162.923L438.561 164.6L437.759 159.453L450.379 157.267L454.797 158.396L447.131 188.383L455.249 190.458L453.95 195.538Z" fill="#5B5B5B" fill-opacity="0.62"/>
<path d="M644.517 268.163L622.152 262.445L623.451 257.365L632.562 259.694L638.677 235.547L629.129 237.225L628.326 232.078L640.946 229.891L645.364 231.02L637.698 261.007L645.816 263.082L644.517 268.163Z" fill="#5B5B5B" fill-opacity="0.62"/>
<path d="M971.597 455.156C973.087 448.087 975.234 443.196 978.038 440.482C980.883 437.777 984.443 436.875 988.717 437.776C993.032 438.685 995.925 440.948 997.395 444.563C998.906 448.186 998.916 453.532 997.426 460.601C995.945 467.629 993.773 472.536 990.91 475.324C988.056 478.07 984.492 478.993 980.218 478.092C975.944 477.191 973.056 474.908 971.553 471.243C970.101 467.546 970.115 462.184 971.597 455.156ZM981.401 472.482C983.661 472.959 985.501 472.273 986.92 470.426C988.381 468.588 989.705 464.854 990.892 459.224C992.087 453.552 992.379 449.622 991.768 447.433C991.197 445.252 989.782 443.924 987.522 443.447C985.261 442.971 983.45 443.619 982.089 445.392C980.737 447.125 979.554 450.395 978.54 455.203C977.535 459.971 977.029 463.491 977.022 465.764C977.065 468.005 977.435 469.607 978.134 470.57C978.832 471.533 979.921 472.17 981.401 472.482Z" fill="#DFBF43"/>
<path d="M1096.48 480.904C1100.52 473.313 1104.59 468.428 1108.7 466.251C1112.85 464.098 1117.22 464.243 1121.81 466.686C1126.44 469.153 1129 472.696 1129.49 477.316C1130.02 481.96 1128.26 488.078 1124.22 495.669C1120.2 503.217 1116.1 508.111 1111.9 510.353C1107.73 512.551 1103.35 512.428 1098.76 509.985C1094.17 507.542 1091.62 503.976 1091.11 499.288C1090.68 494.58 1092.46 488.452 1096.48 480.904ZM1101.97 503.96C1104.39 505.252 1106.73 505.077 1108.96 503.434C1111.24 501.814 1113.99 497.981 1117.2 491.934C1120.45 485.843 1122.08 481.445 1122.1 478.739C1122.17 476.056 1120.99 474.069 1118.56 472.777C1116.14 471.485 1113.85 471.628 1111.71 473.206C1109.59 474.74 1107.16 478.089 1104.41 483.254C1101.68 488.373 1099.94 492.232 1099.18 494.83C1098.49 497.407 1098.38 499.362 1098.86 500.693C1099.34 502.025 1100.38 503.114 1101.97 503.96Z" fill="#5B5B5B" fill-opacity="0.62"/>
<path d="M910.11 451.579C916.261 449.37 921.048 448.702 924.47 449.573C927.904 450.48 930.289 452.793 931.624 456.513C932.972 460.268 932.603 463.57 930.517 466.418C928.443 469.303 924.331 471.849 918.179 474.057C912.063 476.253 907.252 476.91 903.746 476.028C900.276 475.134 897.873 472.827 896.538 469.108C895.203 465.388 895.59 462.08 897.699 459.183C899.857 456.309 903.994 453.774 910.11 451.579ZM901.42 467.355C902.126 469.322 903.528 470.414 905.624 470.63C907.733 470.883 911.238 470.129 916.138 468.37C921.073 466.599 924.239 464.958 925.635 463.447C927.043 461.973 927.395 460.252 926.688 458.285C925.982 456.317 924.623 455.231 922.611 455.024C920.635 454.805 917.554 455.447 913.37 456.949C909.221 458.438 906.27 459.72 904.515 460.794C902.809 461.89 901.752 462.936 901.342 463.931C900.932 464.926 900.958 466.068 901.42 467.355Z" fill="#DFBF43"/>
<path d="M879.514 399.831C878.434 393.384 878.627 388.555 880.092 385.343C881.595 382.124 884.295 380.189 888.193 379.536C892.128 378.877 895.312 379.827 897.744 382.386C900.214 384.939 901.989 389.439 903.068 395.885C904.142 402.293 903.934 407.144 902.443 410.438C900.947 413.694 898.25 415.648 894.352 416.301C890.454 416.954 887.267 415.986 884.791 413.395C882.346 410.761 880.587 406.239 879.514 399.831ZM893.495 411.186C895.556 410.84 896.88 409.655 897.465 407.631C898.088 405.6 897.97 402.017 897.109 396.883C896.243 391.711 895.191 388.304 893.952 386.662C892.752 385.014 891.12 384.362 889.059 384.708C886.998 385.053 885.687 386.197 885.126 388.141C884.559 390.047 884.643 393.192 885.378 397.577C886.106 401.924 886.843 405.057 887.588 406.974C888.364 408.847 889.205 410.074 890.112 410.654C891.018 411.235 892.146 411.412 893.495 411.186Z" fill="#5B5B5B" fill-opacity="0.62"/>
<path d="M862.75 445.585L841.588 436.361L843.683 431.554L852.305 435.312L862.205 412.455L852.512 412.582L852.544 407.373L865.351 407.235L869.531 409.057L857.164 437.43L864.846 440.778L862.75 445.585Z" fill="black" fill-opacity="0.54"/>
<path d="M818.533 407.7L796.167 401.982L797.466 396.902L806.578 399.231L812.692 375.084L803.144 376.762L802.342 371.614L814.961 369.428L819.379 370.557L811.713 400.544L819.831 402.619L818.533 407.7Z" fill="#5B5B5B" fill-opacity="0.62"/>
<path d="M1036.87 532.181L1017.55 544.819L1014.68 540.431L1022.55 535.282L1008.87 514.469L1003.66 522.644L999.322 519.761L1006.23 508.976L1010.05 506.479L1026.99 532.38L1034 527.793L1036.87 532.181Z" fill="#DFBF43"/>
<path d="M1064.2 455.713L1044.92 437.792L1048.99 433.411L1056.84 440.712L1076.13 419.861L1065.66 416.335L1067.66 410.743L1081.49 415.434L1085.3 418.973L1061.27 444.828L1068.27 451.332L1064.2 455.713Z" fill="black" fill-opacity="0.54"/>
<path d="M950.249 445.896L927.883 440.179L929.182 435.098L938.294 437.428L944.408 413.28L934.86 414.958L934.058 409.811L946.678 407.624L951.096 408.754L943.43 438.74L951.548 440.816L950.249 445.896Z" fill="#5B5B5B" fill-opacity="0.62"/>
<path d="M1159.8 560.972C1158.72 554.526 1158.91 549.696 1160.37 546.484C1161.88 543.265 1164.58 541.33 1168.48 540.677C1172.41 540.018 1175.59 540.968 1178.03 543.527C1180.5 546.08 1182.27 550.58 1183.35 557.026C1184.42 563.434 1184.22 568.286 1182.73 571.579C1181.23 574.835 1178.53 576.79 1174.63 577.442C1170.74 578.095 1167.55 577.127 1165.07 574.536C1162.63 571.902 1160.87 567.38 1159.8 560.972ZM1173.78 572.327C1175.84 571.981 1177.16 570.797 1177.75 568.772C1178.37 566.741 1178.25 563.158 1177.39 558.024C1176.53 552.852 1175.47 549.445 1174.24 547.803C1173.03 546.155 1171.4 545.503 1169.34 545.849C1167.28 546.194 1165.97 547.338 1165.41 549.282C1164.84 551.188 1164.93 554.333 1165.66 558.718C1166.39 563.065 1167.13 566.198 1167.87 568.115C1168.65 569.988 1169.49 571.215 1170.39 571.795C1171.3 572.376 1172.43 572.553 1173.78 572.327Z" fill="#DFBF43"/>
<path d="M1260.29 552.658C1266.44 550.45 1271.23 549.781 1274.65 550.653C1278.08 551.56 1280.47 553.873 1281.8 557.593C1283.15 561.348 1282.78 564.65 1280.7 567.498C1278.62 570.382 1274.51 572.929 1268.36 575.137C1262.24 577.332 1257.43 577.989 1253.93 577.108C1250.46 576.214 1248.05 573.907 1246.72 570.187C1245.38 566.468 1245.77 563.16 1247.88 560.263C1250.04 557.388 1254.17 554.854 1260.29 552.658ZM1251.6 568.435C1252.31 570.402 1253.71 571.494 1255.8 571.71C1257.91 571.962 1261.42 571.209 1266.32 569.45C1271.25 567.678 1274.42 566.037 1275.82 564.527C1277.22 563.052 1277.58 561.331 1276.87 559.364C1276.16 557.397 1274.8 556.31 1272.79 556.104C1270.82 555.885 1267.74 556.526 1263.55 558.029C1259.4 559.518 1256.45 560.799 1254.7 561.873C1252.99 562.97 1251.93 564.016 1251.52 565.011C1251.11 566.006 1251.14 567.147 1251.6 568.435Z" fill="#DFBF43"/>
<path d="M1264.63 520.131C1263.55 513.685 1263.74 508.856 1265.21 505.644C1266.71 502.425 1269.41 500.49 1273.31 499.837C1277.24 499.177 1280.43 500.127 1282.86 502.687C1285.33 505.24 1287.1 509.739 1288.18 516.186C1289.26 522.594 1289.05 527.445 1287.56 530.739C1286.06 533.995 1283.37 535.949 1279.47 536.602C1275.57 537.255 1272.38 536.286 1269.91 533.696C1267.46 531.062 1265.7 526.54 1264.63 520.131ZM1278.61 531.487C1280.67 531.141 1282 529.956 1282.58 527.932C1283.2 525.901 1283.09 522.318 1282.23 517.184C1281.36 512.012 1280.31 508.605 1279.07 506.963C1277.87 505.315 1276.24 504.663 1274.18 505.009C1272.11 505.354 1270.8 506.498 1270.24 508.441C1269.68 510.347 1269.76 513.493 1270.49 517.878C1271.22 522.225 1271.96 525.357 1272.7 527.275C1273.48 529.148 1274.32 530.375 1275.23 530.955C1276.13 531.535 1277.26 531.713 1278.61 531.487Z" fill="#5B5B5B" fill-opacity="0.62"/>
<path d="M1226.19 524.526L1205.03 515.302L1207.12 510.495L1215.75 514.253L1225.65 491.396L1215.95 491.523L1215.99 486.314L1228.79 486.176L1232.97 487.998L1220.61 516.371L1228.29 519.719L1226.19 524.526Z" fill="black" fill-opacity="0.54"/>
<path d="M1164.14 488.41L1141.77 482.693L1143.07 477.612L1152.18 479.942L1158.3 455.794L1148.75 457.472L1147.95 452.325L1160.57 450.138L1164.98 451.268L1157.32 481.254L1165.44 483.33L1164.14 488.41Z" fill="#5B5B5B" fill-opacity="0.62"/>
</svg>
