<svg width="732" height="598" viewBox="0 0 732 598" fill="none" xmlns="http://www.w3.org/2000/svg">
<path d="M97.3399 72.6854C165.422 40.3425 236.84 16.6848 362.84 4.68457C488.84 -7.31561 640.94 46.9846 709.34 98.1846C794.84 162.185 582.187 400.963 435.34 503.184C293.84 601.684 175.84 623.683 148.84 557.185C136.724 527.343 15.34 457.185 4.83998 320.685C-5.66002 184.185 29.2577 105.028 97.3399 72.6854Z" fill="#B08A76" stroke="#5B5B5B" stroke-width="5"/>
<path d="M108.015 299.031C-6.62006 296.5 11.3509 208.031 7 171.031H43.3202L461.002 176.531C547.073 159.531 719.783 125.831 722.053 127.031C724.891 128.531 724.891 135.531 723.756 137.531C722.848 139.131 548.208 177.531 461.002 196.531C461.759 225.031 457.597 299.031 370.202 299.031C244.216 299.031 259.728 225.031 249.891 196.531H234.001C228.893 225.031 226.019 301.637 108.015 299.031Z" fill="black"/>
<path d="M47.131 204.83H61.711V251H47.131V204.83ZM69.5054 204.83H103.12V214.55H84.0854V222.974H100.123V231.722H84.0854V241.118H103.039V251H69.5054V204.83ZM125.503 204.83C131.821 204.83 136.978 205.424 140.974 206.612C145.024 207.8 148.156 210.041 150.37 213.335C152.638 216.629 153.772 221.354 153.772 227.51C153.772 234.098 152.584 239.12 150.208 242.576C147.832 245.978 144.646 248.246 140.65 249.38C136.654 250.46 131.605 251 125.503 251H109.303V204.83H125.503ZM136.357 239.984C137.005 239.336 137.464 237.662 137.734 234.962C138.004 232.262 138.139 229.778 138.139 227.51C138.139 224.648 137.923 222.38 137.491 220.706C137.113 218.978 136.411 217.601 135.385 216.575C133.765 214.793 130.984 213.902 127.042 213.902C126.34 213.902 125.287 213.956 123.883 214.064V240.956C124.801 241.064 126.232 241.118 128.176 241.118C130.174 241.118 131.929 241.037 133.441 240.875C135.007 240.659 135.979 240.362 136.357 239.984ZM182.762 252.053C174.716 252.053 168.668 250.163 164.618 246.383C160.622 242.549 158.624 236.42 158.624 227.996C158.624 219.734 160.838 213.713 165.266 209.933C169.694 206.153 175.553 204.263 182.843 204.263C198.179 204.263 205.847 211.904 205.847 227.186C205.847 234.908 203.957 240.983 200.177 245.411C196.451 249.839 190.646 252.053 182.762 252.053ZM182.438 242.495C183.95 242.495 185.219 242.252 186.245 241.766C187.271 241.226 188.081 240.308 188.675 239.012C189.809 236.798 190.376 233.18 190.376 228.158C190.376 223.244 189.809 219.68 188.675 217.466C187.541 215.198 185.462 214.01 182.438 213.902C181.304 213.902 180.116 214.037 178.874 214.307C177.686 214.523 176.93 214.847 176.606 215.279C175.958 216.035 175.445 217.655 175.067 220.139C174.743 222.569 174.581 225.242 174.581 228.158C174.581 232.694 175.013 236.015 175.877 238.121C176.471 239.687 177.308 240.821 178.388 241.523C179.468 242.171 180.818 242.495 182.438 242.495ZM332.736 251H319.128L318.075 225.566C317.913 220.544 317.724 216.737 317.508 214.145H317.265C316.617 216.197 315.861 219.383 314.997 223.703L314.592 225.728L309.003 251H295.395L290.697 228.239L289.887 224.189C288.753 219.167 287.97 215.819 287.538 214.145H287.295C287.079 216.845 286.89 221.246 286.728 227.348C286.674 227.726 286.647 228.32 286.647 229.13L285.918 251H272.229L274.173 204.83H297.339L301.308 224.756L302.28 230.102C302.712 228.428 303.117 226.565 303.495 224.513L307.221 204.83H330.873L332.736 251ZM339.965 204.83H354.545V251H339.965V204.83ZM335.672 193.49H358.838V200.375H335.672V193.49ZM403.082 225.404V248.489C399.464 249.677 396.035 250.541 392.795 251.081C389.555 251.621 386.828 251.891 384.614 251.891C377.27 251.891 371.519 249.974 367.361 246.14C363.203 242.306 361.124 236.42 361.124 228.482C361.124 220.382 363.311 214.334 367.685 210.338C372.059 206.288 378.215 204.263 386.153 204.263C390.311 204.263 395.306 204.884 401.138 206.126C401.138 207.206 401.03 208.826 400.814 210.986C400.598 213.092 400.382 214.577 400.166 215.441L397.25 215.36C393.686 215.252 390.905 215.198 388.907 215.198C382.913 215.198 379.646 215.549 379.106 216.251C378.242 217.277 377.621 218.87 377.243 221.03C376.919 223.19 376.757 225.269 376.757 227.267C376.757 230.885 377.162 233.693 377.972 235.691C378.782 237.689 380.024 239.093 381.698 239.903C383.372 240.713 385.64 241.118 388.502 241.118H388.826V225.404H403.082ZM423.252 217.304C423.252 218.438 423.819 219.329 424.953 219.977C426.141 220.625 427.977 221.327 430.461 222.083C433.431 223.055 435.861 224 437.751 224.918C439.695 225.836 441.369 227.267 442.773 229.211C444.231 231.155 444.96 233.693 444.96 236.825C444.96 246.869 438.426 251.891 425.358 251.891C423.198 251.891 420.552 251.702 417.42 251.324C414.342 250.946 411.534 250.46 408.996 249.866C409.104 248.732 409.32 247.085 409.644 244.925C410.022 242.711 410.373 241.064 410.697 239.984C412.587 240.254 415.422 240.578 419.202 240.956C423.036 241.334 425.925 241.523 427.869 241.523C429.003 241.523 429.678 241.442 429.894 241.28C430.218 241.064 430.461 240.713 430.623 240.227C430.839 239.687 430.947 239.228 430.947 238.85C430.947 237.77 430.434 236.96 429.408 236.42C428.382 235.826 426.627 235.124 424.143 234.314C421.173 233.396 418.716 232.451 416.772 231.479C414.828 230.507 413.127 228.995 411.669 226.943C410.211 224.891 409.482 222.191 409.482 218.843C409.482 216.467 410.022 214.145 411.102 211.877C412.182 209.555 413.289 207.989 414.423 207.179C415.287 206.585 417.069 206.018 419.769 205.478C422.469 204.938 425.007 204.668 427.383 204.668C433.431 204.668 438.372 205.235 442.206 206.369C442.152 207.449 441.963 208.934 441.639 210.824C441.369 212.714 441.072 214.442 440.748 216.008L438.885 215.927C431.865 215.441 427.383 215.198 425.439 215.198C424.629 215.198 424.17 215.225 424.062 215.279C423.846 215.387 423.657 215.63 423.495 216.008C423.333 216.386 423.252 216.818 423.252 217.304Z" fill="white"/>
<path d="M223.941 378.565C218.658 389.905 205.473 414.958 195 424.453C204.53 420.67 224.998 413.367 230.628 414.42C237.665 415.736 240.886 423.586 249.885 424.097C258.884 424.608 262.08 422.151 268.429 419.928C274.778 417.705 281.622 419.483 289.808 424.531C296.356 428.57 307.807 435.489 312.714 438.444C307.633 430.72 296.705 414.517 293.631 411.497C290.558 408.478 276.73 386.156 270.198 380.174C263.204 386.101 248.014 407.057 243.216 405.051C238.419 403.045 228.367 386.558 223.941 378.565Z" fill="black" stroke="black"/>
<path d="M287.608 477.048C292.184 465.405 303.837 445.384 313.706 435.263C304.427 439.626 296.792 439.253 291.108 438.548C284.004 437.667 283.122 428.499 274.108 428.543C265.095 428.586 258.308 432.654 252.108 435.263C245.908 437.873 240.09 428.083 231.608 423.548C224.823 419.92 200.434 431.19 195.355 428.543C200.901 435.94 212.806 451.439 216.059 454.264C219.312 457.088 233.9 468.933 240.786 474.502C247.403 468.155 256.197 456.841 261.108 458.548C266.02 460.255 282.699 469.343 287.608 477.048Z" fill="#5B5B5B" stroke="black"/>
<path d="M129.013 370.003C127.513 369.003 256.513 307.503 258.013 308.003C259.513 308.503 265.513 327.003 264.513 328.503C263.513 330.003 130.513 371.003 129.013 370.003Z" fill="black" stroke="black"/>
</svg>
