<svg width="788" height="576" viewBox="0 0 788 576" fill="none" xmlns="http://www.w3.org/2000/svg">
<path d="M104 89.4679C192 6.96793 281.5 -22.7377 413 18.9679C464.5 35.3013 586.3 68.268 661.5 69.468C736.7 70.668 832.167 41.968 870.5 27.468L850.5 490.968C815.333 497.301 723.9 513.468 639.5 527.468C555.1 541.468 413 574.968 333.5 574.968C144.5 579.468 0 490.968 0 362.468C0 277.468 16.0002 171.968 104 89.4679Z" fill="#8A96C2"/>
<circle cx="274.5" cy="287.5" r="189.5" fill="white"/>
<path d="M269.269 120C269.581 180.385 266.518 299.781 269.269 301.866C273.175 304.828 367.5 369.5 367.5 369.5" stroke="#DFBF43" stroke-width="22" stroke-linecap="round"/>
<path d="M464 143L699 143" stroke="white" stroke-width="17" stroke-linecap="round"/>
<path d="M526 212H823" stroke="white" stroke-width="17" stroke-linecap="round"/>
<path d="M511 294H758" stroke="white" stroke-width="17" stroke-linecap="round"/>
<path d="M511 371H788" stroke="white" stroke-width="17" stroke-linecap="round"/>
<path d="M448 446L653 446" stroke="white" stroke-width="17" stroke-linecap="round"/>
</svg>
