<svg width="684" height="419" viewBox="0 0 684 419" fill="none" xmlns="http://www.w3.org/2000/svg">
<path d="M75.5061 64.8054C139.396 4.90878 204.374 -16.658 299.846 13.6211C337.236 25.4794 401.403 43.1288 456 44C510.597 44.8712 512.5 41.3789 580 27.5C647.5 13.6211 654 22.9799 657.5 34.49C661 46 576 68.8973 576 89.1987C576 109.5 681 105.397 683 120.699C685 136 593 172.5 593.5 191C594 209.5 668.5 233.5 667.5 247.699C666.5 261.897 564 285.897 564.5 298.699C565 311.5 683 347 683 364.699C683 382.397 591 370 534.48 371C477.959 372 331 406 242.128 417.288C153.255 428.576 0 356.302 0 263.009C0 201.297 11.6164 124.702 75.5061 64.8054Z" fill="#8A96C2"/>
<circle cx="199.292" cy="208.58" r="137.581" fill="white"/>
<path d="M195.494 86.9717C195.721 130.812 193.498 217.496 195.494 219.01C198.331 221.161 266.812 268.114 266.812 268.114" stroke="#DFBF43" stroke-width="22" stroke-linecap="round"/>
<path d="M360 137L530.615 137" stroke="white" stroke-width="17" stroke-linecap="round"/>
<path d="M397 201H523" stroke="white" stroke-width="17" stroke-linecap="round"/>
<path d="M360 268L508.834 268" stroke="white" stroke-width="17" stroke-linecap="round"/>
</svg>
